SplineFontDB: 3.2
FontName: OpenDot
FullName: OpenDotSerif
FamilyName: OpenDotSerif
Weight: Regular
Copyright: Copyright (c) 2024, Lucas Peinado GNU-LGPLv3.
UComments: "2024-1-5: Created with FontForge (http://fontforge.org)"
Version: 001.000
ItalicAngle: 0
UnderlinePosition: -100
UnderlineWidth: 50
Ascent: 800
Descent: 200
InvalidEm: 0
LayerCount: 2
Layer: 0 0 "Atr+AOEA-s" 1
Layer: 1 0 "Fore" 0
XUID: [1021 700 -1817675070 11031222]
StyleMap: 0x0000
FSType: 0
OS2Version: 0
OS2_WeightWidthSlopeOnly: 0
OS2_UseTypoMetrics: 1
CreationTime: 1704461550
ModificationTime: 1704474979
OS2TypoAscent: 0
OS2TypoAOffset: 1
OS2TypoDescent: 0
OS2TypoDOffset: 1
OS2TypoLinegap: 90
OS2WinAscent: 0
OS2WinAOffset: 1
OS2WinDescent: 0
OS2WinDOffset: 1
HheadAscent: 0
HheadAOffset: 1
HheadDescent: 0
HheadDOffset: 1
MarkAttachClasses: 1
DEI: 91125
Encoding: iso8859-2
UnicodeInterp: none
NameList: AGL For New Fonts
DisplaySize: -48
AntiAlias: 0
FitToEm: 1
WinInfo: 0 30 12
BeginPrivate: 0
EndPrivate
BeginChars: 256 24

StartChar: A
Encoding: 65 65 0
Width: 1000
Flags: H
LayerCount: 2
Fore
SplineSet
320 80 m 1
 320 120 l 1
 360 120 l 1
 360 80 l 1
 320 80 l 1
320 120 m 1
 320 160 l 1
 360 160 l 1
 360 120 l 1
 320 120 l 1
320 160 m 1
 320 200 l 1
 360 200 l 1
 360 160 l 1
 320 160 l 1
320 200 m 1
 320 240 l 1
 360 240 l 1
 360 200 l 1
 320 200 l 1
320 240 m 1
 320 280 l 1
 360 280 l 1
 360 240 l 1
 320 240 l 1
360 320 m 1
 360 360 l 1
 400 360 l 1
 400 320 l 1
 360 320 l 1
360 360 m 1
 360 400 l 1
 400 400 l 1
 400 360 l 1
 360 360 l 1
360 280 m 1
 360 320 l 1
 400 320 l 1
 400 280 l 1
 360 280 l 1
400 400 m 1
 400 440 l 1
 440 440 l 1
 440 400 l 1
 400 400 l 1
400 440 m 1
 400 480 l 1
 440 480 l 1
 440 440 l 1
 400 440 l 1
280 80 m 1
 280 120 l 1
 320 120 l 1
 320 80 l 1
 280 80 l 1
360 80 m 1
 360 120 l 1
 400 120 l 1
 400 80 l 1
 360 80 l 1
400 480 m 1
 400 520 l 1
 440 520 l 1
 440 480 l 1
 400 480 l 1
440 520 m 1
 440 560 l 1
 480 560 l 1
 480 520 l 1
 440 520 l 1
440 560 m 1
 440 600 l 1
 480 600 l 1
 480 560 l 1
 440 560 l 1
480 600 m 1
 480 640 l 1
 520 640 l 1
 520 600 l 1
 480 600 l 1
480 560 m 1
 480 600 l 1
 520 600 l 1
 520 560 l 1
 480 560 l 1
480 520 m 1
 480 560 l 1
 520 560 l 1
 520 520 l 1
 480 520 l 1
520 480 m 1
 520 520 l 1
 560 520 l 1
 560 480 l 1
 520 480 l 1
520 440 m 1
 520 480 l 1
 560 480 l 1
 560 440 l 1
 520 440 l 1
520 400 m 1
 520 440 l 1
 560 440 l 1
 560 400 l 1
 520 400 l 1
560 320 m 1
 560 360 l 1
 600 360 l 1
 600 320 l 1
 560 320 l 1
560 360 m 1
 560 400 l 1
 600 400 l 1
 600 360 l 1
 560 360 l 1
560 280 m 1
 560 320 l 1
 600 320 l 1
 600 280 l 1
 560 280 l 1
600 240 m 1
 600 280 l 1
 640 280 l 1
 640 240 l 1
 600 240 l 1
600 200 m 1
 600 240 l 1
 640 240 l 1
 640 200 l 1
 600 200 l 1
600 160 m 1
 600 200 l 1
 640 200 l 1
 640 160 l 1
 600 160 l 1
600 120 m 1
 600 160 l 1
 640 160 l 1
 640 120 l 1
 600 120 l 1
600 80 m 1
 600 120 l 1
 640 120 l 1
 640 80 l 1
 600 80 l 1
640 80 m 1
 640 120 l 1
 680 120 l 1
 680 80 l 1
 640 80 l 1
560 80 m 1
 560 120 l 1
 600 120 l 1
 600 80 l 1
 560 80 l 1
400 280 m 1
 400 320 l 1
 440 320 l 1
 440 280 l 1
 400 280 l 1
440 280 m 1
 440 320 l 1
 480 320 l 1
 480 280 l 1
 440 280 l 1
480 280 m 1
 480 320 l 1
 520 320 l 1
 520 280 l 1
 480 280 l 1
520 280 m 1
 520 320 l 1
 560 320 l 1
 560 280 l 1
 520 280 l 1
320 260 m 1
 320 300 l 1
 360 300 l 1
 360 260 l 1
 320 260 l 1
560 400 m 1
 560 440 l 1
 600 440 l 1
 600 400 l 1
 560 400 l 1
560 440 m 1
 560 480 l 1
 600 480 l 1
 600 440 l 1
 560 440 l 1
560 480 m 1
 560 520 l 1
 600 520 l 1
 600 480 l 1
 560 480 l 1
520 520 m 1
 520 560 l 1
 560 560 l 1
 560 520 l 1
 520 520 l 1
600 360 m 1
 600 400 l 1
 640 400 l 1
 640 360 l 1
 600 360 l 1
600 320 m 1
 600 360 l 1
 640 360 l 1
 640 320 l 1
 600 320 l 1
600 280 m 1
 600 320 l 1
 640 320 l 1
 640 280 l 1
 600 280 l 1
640 240 m 1
 640 280 l 1
 680 280 l 1
 680 240 l 1
 640 240 l 1
640 200 m 1
 640 240 l 1
 680 240 l 1
 680 200 l 1
 640 200 l 1
640 160 m 1
 640 200 l 1
 680 200 l 1
 680 160 l 1
 640 160 l 1
640 120 m 1
 640 160 l 1
 680 160 l 1
 680 120 l 1
 640 120 l 1
680 80 m 1
 680 120 l 1
 720 120 l 1
 720 80 l 1
 680 80 l 1
EndSplineSet
Validated: 5
EndChar

StartChar: a
Encoding: 97 97 1
Width: 1000
Flags: H
LayerCount: 2
Fore
SplineSet
420 480 m 1
 420 520 l 1
 460 520 l 1
 460 480 l 1
 420 480 l 1
460 480 m 1
 460 520 l 1
 500 520 l 1
 500 480 l 1
 460 480 l 1
540 440 m 1
 540 480 l 1
 580 480 l 1
 580 440 l 1
 540 440 l 1
580 400 m 1
 580 440 l 1
 620 440 l 1
 620 400 l 1
 580 400 l 1
300 440 m 1
 300 480 l 1
 340 480 l 1
 340 440 l 1
 300 440 l 1
580 360 m 1
 580 400 l 1
 620 400 l 1
 620 360 l 1
 580 360 l 1
500 480 m 1
 500 520 l 1
 540 520 l 1
 540 480 l 1
 500 480 l 1
380 480 m 1
 380 520 l 1
 420 520 l 1
 420 480 l 1
 380 480 l 1
340 440 m 1
 340 480 l 1
 380 480 l 1
 380 440 l 1
 340 440 l 1
580 320 m 1
 580 360 l 1
 620 360 l 1
 620 320 l 1
 580 320 l 1
340 480 m 1
 340 520 l 1
 380 520 l 1
 380 480 l 1
 340 480 l 1
580 280 m 1
 580 320 l 1
 620 320 l 1
 620 280 l 1
 580 280 l 1
580 240 m 1
 580 280 l 1
 620 280 l 1
 620 240 l 1
 580 240 l 1
580 200 m 1
 580 240 l 1
 620 240 l 1
 620 200 l 1
 580 200 l 1
580 160 m 1
 580 200 l 1
 620 200 l 1
 620 160 l 1
 580 160 l 1
660 80.2626953125 m 1
 660 120.262695312 l 1
 700 120.262695312 l 1
 700 80.2626953125 l 1
 660 80.2626953125 l 1
620 80 m 1
 620 120 l 1
 660 120 l 1
 660 80 l 1
 620 80 l 1
620 120 m 1
 620 160 l 1
 660 160 l 1
 660 120 l 1
 620 120 l 1
540 80 m 1
 540 120 l 1
 580 120 l 1
 580 80 l 1
 540 80 l 1
500 80 m 1
 500 120 l 1
 540 120 l 1
 540 80 l 1
 500 80 l 1
460 80 m 1
 460 120 l 1
 500 120 l 1
 500 80 l 1
 460 80 l 1
420 80 m 1
 420 120 l 1
 460 120 l 1
 460 80 l 1
 420 80 l 1
300 200 m 1
 300 240 l 1
 340 240 l 1
 340 200 l 1
 300 200 l 1
300 160 m 1
 300 200 l 1
 340 200 l 1
 340 160 l 1
 300 160 l 1
340 120 m 1
 340 160 l 1
 380 160 l 1
 380 120 l 1
 340 120 l 1
380 80 m 1
 380 120 l 1
 420 120 l 1
 420 80 l 1
 380 80 l 1
300 240 m 1
 300 280 l 1
 340 280 l 1
 340 240 l 1
 300 240 l 1
340 280 m 1
 340 320 l 1
 380 320 l 1
 380 280 l 1
 340 280 l 1
380 280 m 1
 380 320 l 1
 420 320 l 1
 420 280 l 1
 380 280 l 1
420 280 m 1
 420 320 l 1
 460 320 l 1
 460 280 l 1
 420 280 l 1
460 280 m 1
 460 320 l 1
 500 320 l 1
 500 280 l 1
 460 280 l 1
500 280 m 1
 500 320 l 1
 540 320 l 1
 540 280 l 1
 500 280 l 1
540 280 m 1
 540 320 l 1
 580 320 l 1
 580 280 l 1
 540 280 l 1
580 440 m 1
 580 480 l 1
 620 480 l 1
 620 440 l 1
 580 440 l 1
620 360 m 1
 620 400 l 1
 660 400 l 1
 660 360 l 1
 620 360 l 1
620 320 m 1
 620 360 l 1
 660 360 l 1
 660 320 l 1
 620 320 l 1
620 280 m 1
 620 320 l 1
 660 320 l 1
 660 280 l 1
 620 280 l 1
620 240 m 1
 620 280 l 1
 660 280 l 1
 660 240 l 1
 620 240 l 1
620 200 m 1
 620 240 l 1
 660 240 l 1
 660 200 l 1
 620 200 l 1
620 160 m 1
 620 200 l 1
 660 200 l 1
 660 160 l 1
 620 160 l 1
540 480 m 1
 540 520 l 1
 580 520 l 1
 580 480 l 1
 540 480 l 1
580 120 m 1
 580 160 l 1
 620 160 l 1
 620 120 l 1
 580 120 l 1
340 400 m 1
 340 440 l 1
 380 440 l 1
 380 400 l 1
 340 400 l 1
300 400 m 1
 300 440 l 1
 340 440 l 1
 340 400 l 1
 300 400 l 1
340 240 m 1
 340 280 l 1
 380 280 l 1
 380 240 l 1
 340 240 l 1
EndSplineSet
Validated: 524293
EndChar

StartChar: B
Encoding: 66 66 2
Width: 1000
Flags: H
LayerCount: 2
Fore
SplineSet
320 80 m 1
 320 120 l 1
 360 120 l 1
 360 80 l 1
 320 80 l 1
280 80 m 1
 280 120 l 1
 320 120 l 1
 320 80 l 1
 280 80 l 1
320 120 m 1
 320 160 l 1
 360 160 l 1
 360 120 l 1
 320 120 l 1
320 160 m 1
 320 200 l 1
 360 200 l 1
 360 160 l 1
 320 160 l 1
320 200 m 1
 320 240 l 1
 360 240 l 1
 360 200 l 1
 320 200 l 1
320 240 m 1
 320 280 l 1
 360 280 l 1
 360 240 l 1
 320 240 l 1
320 280 m 1
 320 320 l 1
 360 320 l 1
 360 280 l 1
 320 280 l 1
320 320 m 1
 320 360 l 1
 360 360 l 1
 360 320 l 1
 320 320 l 1
320 360 m 1
 320 400 l 1
 360 400 l 1
 360 360 l 1
 320 360 l 1
320 400 m 1
 320 440 l 1
 360 440 l 1
 360 400 l 1
 320 400 l 1
320 440 m 1
 320 480 l 1
 360 480 l 1
 360 440 l 1
 320 440 l 1
320 480 m 1
 320 520 l 1
 360 520 l 1
 360 480 l 1
 320 480 l 1
320 520 m 1
 320 560 l 1
 360 560 l 1
 360 520 l 1
 320 520 l 1
320 560 m 1
 320 600 l 1
 360 600 l 1
 360 560 l 1
 320 560 l 1
320 600 m 1
 320 640 l 1
 360 640 l 1
 360 600 l 1
 320 600 l 1
360 120 m 1
 360 160 l 1
 400 160 l 1
 400 120 l 1
 360 120 l 1
360 160 m 1
 360 200 l 1
 400 200 l 1
 400 160 l 1
 360 160 l 1
360 200 m 1
 360 240 l 1
 400 240 l 1
 400 200 l 1
 360 200 l 1
360 240 m 1
 360 280 l 1
 400 280 l 1
 400 240 l 1
 360 240 l 1
360 280 m 1
 360 320 l 1
 400 320 l 1
 400 280 l 1
 360 280 l 1
360 320 m 1
 360 360 l 1
 400 360 l 1
 400 320 l 1
 360 320 l 1
360 360 m 1
 360 400 l 1
 400 400 l 1
 400 360 l 1
 360 360 l 1
360 400 m 1
 360 440 l 1
 400 440 l 1
 400 400 l 1
 360 400 l 1
360 440 m 1
 360 480 l 1
 400 480 l 1
 400 440 l 1
 360 440 l 1
360 480 m 1
 360 520 l 1
 400 520 l 1
 400 480 l 1
 360 480 l 1
360 520 m 1
 360 560 l 1
 400 560 l 1
 400 520 l 1
 360 520 l 1
360 560 m 1
 360 600 l 1
 400 600 l 1
 400 560 l 1
 360 560 l 1
280 600 m 1
 280 640 l 1
 320 640 l 1
 320 600 l 1
 280 600 l 1
400 80 m 1
 400 120 l 1
 440 120 l 1
 440 80 l 1
 400 80 l 1
680 200 m 1
 680 240 l 1
 720 240 l 1
 720 200 l 1
 680 200 l 1
680 480 m 1
 680 520 l 1
 720 520 l 1
 720 480 l 1
 680 480 l 1
680 440 m 1
 680 480 l 1
 720 480 l 1
 720 440 l 1
 680 440 l 1
680 160 m 1
 680 200 l 1
 720 200 l 1
 720 160 l 1
 680 160 l 1
600 80 m 1
 600 120 l 1
 640 120 l 1
 640 80 l 1
 600 80 l 1
560 80 m 1
 560 120 l 1
 600 120 l 1
 600 80 l 1
 560 80 l 1
520 80 m 1
 520 120 l 1
 560 120 l 1
 560 80 l 1
 520 80 l 1
480 80 m 1
 480 120 l 1
 520 120 l 1
 520 80 l 1
 480 80 l 1
440 80 m 1
 440 120 l 1
 480 120 l 1
 480 80 l 1
 440 80 l 1
680 240 m 1
 680 280 l 1
 720 280 l 1
 720 240 l 1
 680 240 l 1
600 280 m 1
 600 320 l 1
 640 320 l 1
 640 280 l 1
 600 280 l 1
560 320 m 1
 560 360 l 1
 600 360 l 1
 600 320 l 1
 560 320 l 1
520 320 m 1
 520 360 l 1
 560 360 l 1
 560 320 l 1
 520 320 l 1
400 600 m 1
 400 640 l 1
 440 640 l 1
 440 600 l 1
 400 600 l 1
440 600 m 1
 440 640 l 1
 480 640 l 1
 480 600 l 1
 440 600 l 1
480 600 m 1
 480 640 l 1
 520 640 l 1
 520 600 l 1
 480 600 l 1
480 600 m 1
 480 640 l 1
 520 640 l 1
 520 600 l 1
 480 600 l 1
520 600 m 1
 520 640 l 1
 560 640 l 1
 560 600 l 1
 520 600 l 1
560 600 m 1
 560 640 l 1
 600 640 l 1
 600 600 l 1
 560 600 l 1
600 560 m 1
 600 600 l 1
 640 600 l 1
 640 560 l 1
 600 560 l 1
680 400 m 1
 680 440 l 1
 720 440 l 1
 720 400 l 1
 680 400 l 1
640 480 m 1
 640 520 l 1
 680 520 l 1
 680 480 l 1
 640 480 l 1
640 440 m 1
 640 480 l 1
 680 480 l 1
 680 440 l 1
 640 440 l 1
640 520 m 1
 640 560 l 1
 680 560 l 1
 680 520 l 1
 640 520 l 1
640 520 m 1
 640 560 l 1
 680 560 l 1
 680 520 l 1
 640 520 l 1
640 400 m 1
 640 440 l 1
 680 440 l 1
 680 400 l 1
 640 400 l 1
640 360 m 1
 640 400 l 1
 680 400 l 1
 680 360 l 1
 640 360 l 1
600 360 m 1
 600 400 l 1
 640 400 l 1
 640 360 l 1
 600 360 l 1
480 320 m 1
 480 360 l 1
 520 360 l 1
 520 320 l 1
 480 320 l 1
440 320 m 1
 440 360 l 1
 480 360 l 1
 480 320 l 1
 440 320 l 1
400 320 m 1
 400 360 l 1
 440 360 l 1
 440 320 l 1
 400 320 l 1
640 120 m 1
 640 160 l 1
 680 160 l 1
 680 120 l 1
 640 120 l 1
640 280 m 1
 640 320 l 1
 680 320 l 1
 680 280 l 1
 640 280 l 1
640 200 m 1
 640 240 l 1
 680 240 l 1
 680 200 l 1
 640 200 l 1
640 160 m 1
 640 200 l 1
 680 200 l 1
 680 160 l 1
 640 160 l 1
640 240 m 1
 640 280 l 1
 680 280 l 1
 680 240 l 1
 640 240 l 1
600 320 m 1
 600 360 l 1
 640 360 l 1
 640 320 l 1
 600 320 l 1
600 120 m 1
 600 160 l 1
 640 160 l 1
 640 120 l 1
 600 120 l 1
EndSplineSet
Validated: 5
EndChar

StartChar: b
Encoding: 98 98 3
Width: 1000
Flags: H
LayerCount: 2
Fore
SplineSet
320 80 m 1
 320 120 l 1
 360 120 l 1
 360 80 l 1
 320 80 l 1
280 80 m 1
 280 120 l 1
 320 120 l 1
 320 80 l 1
 280 80 l 1
320 120 m 1
 320 160 l 1
 360 160 l 1
 360 120 l 1
 320 120 l 1
320 160 m 1
 320 200 l 1
 360 200 l 1
 360 160 l 1
 320 160 l 1
320 200 m 1
 320 240 l 1
 360 240 l 1
 360 200 l 1
 320 200 l 1
320 240 m 1
 320 280 l 1
 360 280 l 1
 360 240 l 1
 320 240 l 1
320 280 m 1
 320 320 l 1
 360 320 l 1
 360 280 l 1
 320 280 l 1
320 320 m 1
 320 360 l 1
 360 360 l 1
 360 320 l 1
 320 320 l 1
320 360 m 1
 320 400 l 1
 360 400 l 1
 360 360 l 1
 320 360 l 1
320 400 m 1
 320 440 l 1
 360 440 l 1
 360 400 l 1
 320 400 l 1
320 440 m 1
 320 480 l 1
 360 480 l 1
 360 440 l 1
 320 440 l 1
320 480 m 1
 320 520 l 1
 360 520 l 1
 360 480 l 1
 320 480 l 1
320 520 m 1
 320 560 l 1
 360 560 l 1
 360 520 l 1
 320 520 l 1
320 560 m 1
 320 600 l 1
 360 600 l 1
 360 560 l 1
 320 560 l 1
320 600 m 1
 320 640 l 1
 360 640 l 1
 360 600 l 1
 320 600 l 1
360 120 m 1
 360 160 l 1
 400 160 l 1
 400 120 l 1
 360 120 l 1
360 160 m 1
 360 200 l 1
 400 200 l 1
 400 160 l 1
 360 160 l 1
360 200 m 1
 360 240 l 1
 400 240 l 1
 400 200 l 1
 360 200 l 1
360 240 m 1
 360 280 l 1
 400 280 l 1
 400 240 l 1
 360 240 l 1
360 280 m 1
 360 320 l 1
 400 320 l 1
 400 280 l 1
 360 280 l 1
360 320 m 1
 360 360 l 1
 400 360 l 1
 400 320 l 1
 360 320 l 1
360 360 m 1
 360 400 l 1
 400 400 l 1
 400 360 l 1
 360 360 l 1
360 400 m 1
 360 440 l 1
 400 440 l 1
 400 400 l 1
 360 400 l 1
360 440 m 1
 360 480 l 1
 400 480 l 1
 400 440 l 1
 360 440 l 1
360 480 m 1
 360 520 l 1
 400 520 l 1
 400 480 l 1
 360 480 l 1
360 520 m 1
 360 560 l 1
 400 560 l 1
 400 520 l 1
 360 520 l 1
360 560 m 1
 360 600 l 1
 400 600 l 1
 400 560 l 1
 360 560 l 1
360 600 m 1
 360 640 l 1
 400 640 l 1
 400 600 l 1
 360 600 l 1
280 600 m 1
 280 640 l 1
 320 640 l 1
 320 600 l 1
 280 600 l 1
400 80 m 1
 400 120 l 1
 440 120 l 1
 440 80 l 1
 400 80 l 1
680 200 m 1
 680 240 l 1
 720 240 l 1
 720 200 l 1
 680 200 l 1
680 160 m 1
 680 200 l 1
 720 200 l 1
 720 160 l 1
 680 160 l 1
600 80 m 1
 600 120 l 1
 640 120 l 1
 640 80 l 1
 600 80 l 1
560 80 m 1
 560 120 l 1
 600 120 l 1
 600 80 l 1
 560 80 l 1
520 80 m 1
 520 120 l 1
 560 120 l 1
 560 80 l 1
 520 80 l 1
480 80 m 1
 480 120 l 1
 520 120 l 1
 520 80 l 1
 480 80 l 1
440 80 m 1
 440 120 l 1
 480 120 l 1
 480 80 l 1
 440 80 l 1
680 240 m 1
 680 280 l 1
 720 280 l 1
 720 240 l 1
 680 240 l 1
600 280 m 1
 600 320 l 1
 640 320 l 1
 640 280 l 1
 600 280 l 1
560 360 m 1
 560 400 l 1
 600 400 l 1
 600 360 l 1
 560 360 l 1
520 360 m 1
 520 400 l 1
 560 400 l 1
 560 360 l 1
 520 360 l 1
400 600 m 1
 400 640 l 1
 440 640 l 1
 440 600 l 1
 400 600 l 1
480 360 m 1
 480 400 l 1
 520 400 l 1
 520 360 l 1
 480 360 l 1
440 360 m 1
 440 400 l 1
 480 400 l 1
 480 360 l 1
 440 360 l 1
400 360 m 1
 400 400 l 1
 440 400 l 1
 440 360 l 1
 400 360 l 1
640 120 m 1
 640 160 l 1
 680 160 l 1
 680 120 l 1
 640 120 l 1
640 280 m 1
 640 320 l 1
 680 320 l 1
 680 280 l 1
 640 280 l 1
640 200 m 1
 640 240 l 1
 680 240 l 1
 680 200 l 1
 640 200 l 1
640 160 m 1
 640 200 l 1
 680 200 l 1
 680 160 l 1
 640 160 l 1
640 240 m 1
 640 280 l 1
 680 280 l 1
 680 240 l 1
 640 240 l 1
600 320 m 1
 600 360 l 1
 640 360 l 1
 640 320 l 1
 600 320 l 1
600 120 m 1
 600 160 l 1
 640 160 l 1
 640 120 l 1
 600 120 l 1
560 320 m 1
 560 360 l 1
 600 360 l 1
 600 320 l 1
 560 320 l 1
EndSplineSet
Validated: 5
EndChar

StartChar: C
Encoding: 67 67 4
Width: 1000
Flags: H
LayerCount: 2
Fore
SplineSet
480 600 m 1
 480 640 l 1
 520 640 l 1
 520 600 l 1
 480 600 l 1
440 600 m 1
 440 640 l 1
 480 640 l 1
 480 600 l 1
 440 600 l 1
400 560 m 1
 400 600 l 1
 440 600 l 1
 440 560 l 1
 400 560 l 1
360 560 m 1
 360 600 l 1
 400 600 l 1
 400 560 l 1
 360 560 l 1
320 520 m 1
 320 560 l 1
 360 560 l 1
 360 520 l 1
 320 520 l 1
280 440 m 1
 280 480 l 1
 320 480 l 1
 320 440 l 1
 280 440 l 1
320 480 m 1
 320 520 l 1
 360 520 l 1
 360 480 l 1
 320 480 l 1
280 400 m 1
 280 440 l 1
 320 440 l 1
 320 400 l 1
 280 400 l 1
280 360 m 1
 280 400 l 1
 320 400 l 1
 320 360 l 1
 280 360 l 1
280 360 m 1
 280 400 l 1
 320 400 l 1
 320 360 l 1
 280 360 l 1
560 600 m 1
 560 640 l 1
 600 640 l 1
 600 600 l 1
 560 600 l 1
520 600 m 1
 520 640 l 1
 560 640 l 1
 560 600 l 1
 520 600 l 1
600 560 m 1
 600 600 l 1
 640 600 l 1
 640 560 l 1
 600 560 l 1
640 520 m 1
 640 560 l 1
 680 560 l 1
 680 520 l 1
 640 520 l 1
680 480 m 1
 680 520 l 1
 720 520 l 1
 720 480 l 1
 680 480 l 1
640 480 m 1
 640 520 l 1
 680 520 l 1
 680 480 l 1
 640 480 l 1
680 520 m 1
 680 560 l 1
 720 560 l 1
 720 520 l 1
 680 520 l 1
480 120 m 1
 520 120 l 1
 520 80 l 1
 480 80 l 1
 480 120 l 1
440 120 m 1
 480 120 l 1
 480 80 l 1
 440 80 l 1
 440 120 l 1
400 160 m 1
 440 160 l 1
 440 120 l 1
 400 120 l 1
 400 160 l 1
360 160 m 1
 400 160 l 1
 400 120 l 1
 360 120 l 1
 360 160 l 1
320 200 m 1
 360 200 l 1
 360 160 l 1
 320 160 l 1
 320 200 l 1
280 280 m 1
 320 280 l 1
 320 240 l 1
 280 240 l 1
 280 280 l 1
320 240 m 1
 360 240 l 1
 360 200 l 1
 320 200 l 1
 320 240 l 1
280 320 m 1
 320 320 l 1
 320 280 l 1
 280 280 l 1
 280 320 l 1
280 360 m 1
 320 360 l 1
 320 320 l 1
 280 320 l 1
 280 360 l 1
280 360 m 1
 320 360 l 1
 320 320 l 1
 280 320 l 1
 280 360 l 1
560 120 m 1
 600 120 l 1
 600 80 l 1
 560 80 l 1
 560 120 l 1
520 120 m 1
 560 120 l 1
 560 80 l 1
 520 80 l 1
 520 120 l 1
600 160 m 1
 640 160 l 1
 640 120 l 1
 600 120 l 1
 600 160 l 1
640 160 m 1
 680 160 l 1
 680 120 l 1
 640 120 l 1
 640 160 l 1
680 200 m 1
 720 200 l 1
 720 160 l 1
 680 160 l 1
 680 200 l 1
320 440 m 1
 320 480 l 1
 360 480 l 1
 360 440 l 1
 320 440 l 1
320 400 m 1
 320 440 l 1
 360 440 l 1
 360 400 l 1
 320 400 l 1
320 360 m 1
 320 400 l 1
 360 400 l 1
 360 360 l 1
 320 360 l 1
320 360 m 1
 320 400 l 1
 360 400 l 1
 360 360 l 1
 320 360 l 1
320 280 m 1
 360 280 l 1
 360 240 l 1
 320 240 l 1
 320 280 l 1
320 320 m 1
 360 320 l 1
 360 280 l 1
 320 280 l 1
 320 320 l 1
320 360 m 1
 360 360 l 1
 360 320 l 1
 320 320 l 1
 320 360 l 1
320 360 m 1
 360 360 l 1
 360 320 l 1
 320 320 l 1
 320 360 l 1
360 520 m 1
 360 560 l 1
 400 560 l 1
 400 520 l 1
 360 520 l 1
360 480 m 1
 360 520 l 1
 400 520 l 1
 400 480 l 1
 360 480 l 1
360 160 m 1
 360 200 l 1
 400 200 l 1
 400 160 l 1
 360 160 l 1
360 200 m 1
 360 240 l 1
 400 240 l 1
 400 200 l 1
 360 200 l 1
360 240 m 1
 360 280 l 1
 400 280 l 1
 400 240 l 1
 360 240 l 1
360 440 m 1
 360 480 l 1
 400 480 l 1
 400 440 l 1
 360 440 l 1
640 560 m 1
 640 600 l 1
 680 600 l 1
 680 560 l 1
 640 560 l 1
EndSplineSet
Validated: 5
EndChar

StartChar: c
Encoding: 99 99 5
Width: 1000
Flags: H
LayerCount: 2
Fore
SplineSet
480 480 m 1
 480 520 l 1
 520 520 l 1
 520 480 l 1
 480 480 l 1
440 480 m 1
 440 520 l 1
 480 520 l 1
 480 480 l 1
 440 480 l 1
400 440 m 1
 400 480 l 1
 440 480 l 1
 440 440 l 1
 400 440 l 1
360 440 m 1
 360 480 l 1
 400 480 l 1
 400 440 l 1
 360 440 l 1
320 400 m 1
 320 440 l 1
 360 440 l 1
 360 400 l 1
 320 400 l 1
280 320 m 1
 280 360 l 1
 320 360 l 1
 320 320 l 1
 280 320 l 1
320 360 m 1
 320 400 l 1
 360 400 l 1
 360 360 l 1
 320 360 l 1
560 480 m 1
 560 520 l 1
 600 520 l 1
 600 480 l 1
 560 480 l 1
520 480 m 1
 520 520 l 1
 560 520 l 1
 560 480 l 1
 520 480 l 1
600 440 m 1
 600 480 l 1
 640 480 l 1
 640 440 l 1
 600 440 l 1
640 400 m 1
 640 440 l 1
 680 440 l 1
 680 400 l 1
 640 400 l 1
680 360 m 1
 680 400 l 1
 720 400 l 1
 720 360 l 1
 680 360 l 1
640 360 m 1
 640 400 l 1
 680 400 l 1
 680 360 l 1
 640 360 l 1
680 400 m 1
 680 440 l 1
 720 440 l 1
 720 400 l 1
 680 400 l 1
480 120 m 1
 520 120 l 1
 520 80 l 1
 480 80 l 1
 480 120 l 1
440 120 m 1
 480 120 l 1
 480 80 l 1
 440 80 l 1
 440 120 l 1
400 160 m 1
 440 160 l 1
 440 120 l 1
 400 120 l 1
 400 160 l 1
360 160 m 1
 400 160 l 1
 400 120 l 1
 360 120 l 1
 360 160 l 1
320 200 m 1
 360 200 l 1
 360 160 l 1
 320 160 l 1
 320 200 l 1
280 280 m 1
 320 280 l 1
 320 240 l 1
 280 240 l 1
 280 280 l 1
320 240 m 1
 360 240 l 1
 360 200 l 1
 320 200 l 1
 320 240 l 1
280 320 m 1
 320 320 l 1
 320 280 l 1
 280 280 l 1
 280 320 l 1
560 120 m 1
 600 120 l 1
 600 80 l 1
 560 80 l 1
 560 120 l 1
520 120 m 1
 560 120 l 1
 560 80 l 1
 520 80 l 1
 520 120 l 1
600 160 m 1
 640 160 l 1
 640 120 l 1
 600 120 l 1
 600 160 l 1
640 160 m 1
 680 160 l 1
 680 120 l 1
 640 120 l 1
 640 160 l 1
680 200 m 1
 720 200 l 1
 720 160 l 1
 680 160 l 1
 680 200 l 1
320 320 m 1
 320 360 l 1
 360 360 l 1
 360 320 l 1
 320 320 l 1
320 280 m 1
 360 280 l 1
 360 240 l 1
 320 240 l 1
 320 280 l 1
320 320 m 1
 360 320 l 1
 360 280 l 1
 320 280 l 1
 320 320 l 1
360 400 m 1
 360 440 l 1
 400 440 l 1
 400 400 l 1
 360 400 l 1
360 360 m 1
 360 400 l 1
 400 400 l 1
 400 360 l 1
 360 360 l 1
360 160 m 1
 360 200 l 1
 400 200 l 1
 400 160 l 1
 360 160 l 1
360 200 m 1
 360 240 l 1
 400 240 l 1
 400 200 l 1
 360 200 l 1
640 440 m 1
 640 480 l 1
 680 480 l 1
 680 440 l 1
 640 440 l 1
EndSplineSet
Validated: 5
EndChar

StartChar: D
Encoding: 68 68 6
Width: 1000
Flags: H
LayerCount: 2
Fore
SplineSet
320 80 m 1
 320 120 l 1
 360 120 l 1
 360 80 l 1
 320 80 l 1
280 80 m 1
 280 120 l 1
 320 120 l 1
 320 80 l 1
 280 80 l 1
360 80 m 1
 360 120 l 1
 400 120 l 1
 400 80 l 1
 360 80 l 1
320 120 m 1
 320 160 l 1
 360 160 l 1
 360 120 l 1
 320 120 l 1
320 160 m 1
 320 200 l 1
 360 200 l 1
 360 160 l 1
 320 160 l 1
320 200 m 1
 320 240 l 1
 360 240 l 1
 360 200 l 1
 320 200 l 1
320 240 m 1
 320 280 l 1
 360 280 l 1
 360 240 l 1
 320 240 l 1
320 280 m 1
 320 320 l 1
 360 320 l 1
 360 280 l 1
 320 280 l 1
320 320 m 1
 320 360 l 1
 360 360 l 1
 360 320 l 1
 320 320 l 1
320 360 m 1
 320 400 l 1
 360 400 l 1
 360 360 l 1
 320 360 l 1
320 400 m 1
 320 440 l 1
 360 440 l 1
 360 400 l 1
 320 400 l 1
320 440 m 1
 320 480 l 1
 360 480 l 1
 360 440 l 1
 320 440 l 1
320 480 m 1
 320 520 l 1
 360 520 l 1
 360 480 l 1
 320 480 l 1
320 520 m 1
 320 560 l 1
 360 560 l 1
 360 520 l 1
 320 520 l 1
320 560 m 1
 320 600 l 1
 360 600 l 1
 360 560 l 1
 320 560 l 1
320 600 m 1
 320 640 l 1
 360 640 l 1
 360 600 l 1
 320 600 l 1
360 120 m 1
 360 160 l 1
 400 160 l 1
 400 120 l 1
 360 120 l 1
360 160 m 1
 360 200 l 1
 400 200 l 1
 400 160 l 1
 360 160 l 1
360 200 m 1
 360 240 l 1
 400 240 l 1
 400 200 l 1
 360 200 l 1
360 240 m 1
 360 280 l 1
 400 280 l 1
 400 240 l 1
 360 240 l 1
360 280 m 1
 360 320 l 1
 400 320 l 1
 400 280 l 1
 360 280 l 1
360 320 m 1
 360 360 l 1
 400 360 l 1
 400 320 l 1
 360 320 l 1
360 360 m 1
 360 400 l 1
 400 400 l 1
 400 360 l 1
 360 360 l 1
360 400 m 1
 360 440 l 1
 400 440 l 1
 400 400 l 1
 360 400 l 1
360 440 m 1
 360 480 l 1
 400 480 l 1
 400 440 l 1
 360 440 l 1
360 480 m 1
 360 520 l 1
 400 520 l 1
 400 480 l 1
 360 480 l 1
360 520 m 1
 360 560 l 1
 400 560 l 1
 400 520 l 1
 360 520 l 1
360 600 m 1
 360 640 l 1
 400 640 l 1
 400 600 l 1
 360 600 l 1
280 600 m 1
 280 640 l 1
 320 640 l 1
 320 600 l 1
 280 600 l 1
400 80 m 1
 400 120 l 1
 440 120 l 1
 440 80 l 1
 400 80 l 1
640 320 m 1
 640 360 l 1
 680 360 l 1
 680 320 l 1
 640 320 l 1
680 440 m 1
 680 480 l 1
 720 480 l 1
 720 440 l 1
 680 440 l 1
640 240 m 1
 640 280 l 1
 680 280 l 1
 680 240 l 1
 640 240 l 1
560 80 m 1
 560 120 l 1
 600 120 l 1
 600 80 l 1
 560 80 l 1
520 80 m 1
 520 120 l 1
 560 120 l 1
 560 80 l 1
 520 80 l 1
480 80 m 1
 480 120 l 1
 520 120 l 1
 520 80 l 1
 480 80 l 1
440 80 m 1
 440 120 l 1
 480 120 l 1
 480 80 l 1
 440 80 l 1
680 240 m 1
 680 280 l 1
 720 280 l 1
 720 240 l 1
 680 240 l 1
400 600 m 1
 400 640 l 1
 440 640 l 1
 440 600 l 1
 400 600 l 1
440 600 m 1
 440 640 l 1
 480 640 l 1
 480 600 l 1
 440 600 l 1
480 600 m 1
 480 640 l 1
 520 640 l 1
 520 600 l 1
 480 600 l 1
480 600 m 1
 480 640 l 1
 520 640 l 1
 520 600 l 1
 480 600 l 1
520 600 m 1
 520 640 l 1
 560 640 l 1
 560 600 l 1
 520 600 l 1
560 600 m 1
 560 640 l 1
 600 640 l 1
 600 600 l 1
 560 600 l 1
600 560 m 1
 600 600 l 1
 640 600 l 1
 640 560 l 1
 600 560 l 1
680 400 m 1
 680 440 l 1
 720 440 l 1
 720 400 l 1
 680 400 l 1
640 480 m 1
 640 520 l 1
 680 520 l 1
 680 480 l 1
 640 480 l 1
640 440 m 1
 640 480 l 1
 680 480 l 1
 680 440 l 1
 640 440 l 1
640 520 m 1
 640 560 l 1
 680 560 l 1
 680 520 l 1
 640 520 l 1
640 520 m 1
 640 560 l 1
 680 560 l 1
 680 520 l 1
 640 520 l 1
640 400 m 1
 640 440 l 1
 680 440 l 1
 680 400 l 1
 640 400 l 1
640 360 m 1
 640 400 l 1
 680 400 l 1
 680 360 l 1
 640 360 l 1
680 320 m 1
 680 360 l 1
 720 360 l 1
 720 320 l 1
 680 320 l 1
640 200 m 1
 640 240 l 1
 680 240 l 1
 680 200 l 1
 640 200 l 1
640 160 m 1
 640 200 l 1
 680 200 l 1
 680 160 l 1
 640 160 l 1
680 280 m 1
 680 320 l 1
 720 320 l 1
 720 280 l 1
 680 280 l 1
600 120 m 1
 600 160 l 1
 640 160 l 1
 640 120 l 1
 600 120 l 1
640 280 m 1
 640 320 l 1
 680 320 l 1
 680 280 l 1
 640 280 l 1
680 360 m 1
 680 400 l 1
 720 400 l 1
 720 360 l 1
 680 360 l 1
600 160 m 1
 600 200 l 1
 640 200 l 1
 640 160 l 1
 600 160 l 1
600 520 m 1
 600 560 l 1
 640 560 l 1
 640 520 l 1
 600 520 l 1
560 560 m 1
 560 600 l 1
 600 600 l 1
 600 560 l 1
 560 560 l 1
560 120 m 1
 560 160 l 1
 600 160 l 1
 600 120 l 1
 560 120 l 1
EndSplineSet
Validated: 5
EndChar

StartChar: d
Encoding: 100 100 7
Width: 1000
Flags: H
LayerCount: 2
Fore
SplineSet
680 80 m 1
 640 80 l 1
 640 120 l 1
 680 120 l 1
 680 80 l 1
720 80 m 1
 680 80 l 1
 680 120 l 1
 720 120 l 1
 720 80 l 1
680 120 m 1
 640 120 l 1
 640 160 l 1
 680 160 l 1
 680 120 l 1
680 160 m 1
 640 160 l 1
 640 200 l 1
 680 200 l 1
 680 160 l 1
680 200 m 1
 640 200 l 1
 640 240 l 1
 680 240 l 1
 680 200 l 1
680 240 m 1
 640 240 l 1
 640 280 l 1
 680 280 l 1
 680 240 l 1
680 280 m 1
 640 280 l 1
 640 320 l 1
 680 320 l 1
 680 280 l 1
680 320 m 1
 640 320 l 1
 640 360 l 1
 680 360 l 1
 680 320 l 1
680 360 m 1
 640 360 l 1
 640 400 l 1
 680 400 l 1
 680 360 l 1
680 400 m 1
 640 400 l 1
 640 440 l 1
 680 440 l 1
 680 400 l 1
680 440 m 1
 640 440 l 1
 640 480 l 1
 680 480 l 1
 680 440 l 1
680 480 m 1
 640 480 l 1
 640 520 l 1
 680 520 l 1
 680 480 l 1
680 520 m 1
 640 520 l 1
 640 560 l 1
 680 560 l 1
 680 520 l 1
680 560 m 1
 640 560 l 1
 640 600 l 1
 680 600 l 1
 680 560 l 1
680 600 m 1
 640 600 l 1
 640 640 l 1
 680 640 l 1
 680 600 l 1
640 120 m 1
 600 120 l 1
 600 160 l 1
 640 160 l 1
 640 120 l 1
640 160 m 1
 600 160 l 1
 600 200 l 1
 640 200 l 1
 640 160 l 1
640 200 m 1
 600 200 l 1
 600 240 l 1
 640 240 l 1
 640 200 l 1
640 240 m 1
 600 240 l 1
 600 280 l 1
 640 280 l 1
 640 240 l 1
640 280 m 1
 600 280 l 1
 600 320 l 1
 640 320 l 1
 640 280 l 1
640 320 m 1
 600 320 l 1
 600 360 l 1
 640 360 l 1
 640 320 l 1
640 360 m 1
 600 360 l 1
 600 400 l 1
 640 400 l 1
 640 360 l 1
640 400 m 1
 600 400 l 1
 600 440 l 1
 640 440 l 1
 640 400 l 1
640 440 m 1
 600 440 l 1
 600 480 l 1
 640 480 l 1
 640 440 l 1
640 480 m 1
 600 480 l 1
 600 520 l 1
 640 520 l 1
 640 480 l 1
640 520 m 1
 600 520 l 1
 600 560 l 1
 640 560 l 1
 640 520 l 1
640 560 m 1
 600 560 l 1
 600 600 l 1
 640 600 l 1
 640 560 l 1
640 600 m 1
 600 600 l 1
 600 640 l 1
 640 640 l 1
 640 600 l 1
720 600 m 1
 680 600 l 1
 680 640 l 1
 720 640 l 1
 720 600 l 1
600 80 m 1
 560 80 l 1
 560 120 l 1
 600 120 l 1
 600 80 l 1
320 200 m 1
 280 200 l 1
 280 240 l 1
 320 240 l 1
 320 200 l 1
320 160 m 1
 280 160 l 1
 280 200 l 1
 320 200 l 1
 320 160 l 1
400 80 m 1
 360 80 l 1
 360 120 l 1
 400 120 l 1
 400 80 l 1
440 80 m 1
 400 80 l 1
 400 120 l 1
 440 120 l 1
 440 80 l 1
480 80 m 1
 440 80 l 1
 440 120 l 1
 480 120 l 1
 480 80 l 1
520 80 m 1
 480 80 l 1
 480 120 l 1
 520 120 l 1
 520 80 l 1
560 80 m 1
 520 80 l 1
 520 120 l 1
 560 120 l 1
 560 80 l 1
320 240 m 1
 280 240 l 1
 280 280 l 1
 320 280 l 1
 320 240 l 1
400 280 m 1
 360 280 l 1
 360 320 l 1
 400 320 l 1
 400 280 l 1
440 360 m 1
 400 360 l 1
 400 400 l 1
 440 400 l 1
 440 360 l 1
480 360 m 1
 440 360 l 1
 440 400 l 1
 480 400 l 1
 480 360 l 1
600 600 m 1
 560 600 l 1
 560 640 l 1
 600 640 l 1
 600 600 l 1
520 360 m 1
 480 360 l 1
 480 400 l 1
 520 400 l 1
 520 360 l 1
560 360 m 1
 520 360 l 1
 520 400 l 1
 560 400 l 1
 560 360 l 1
600 360 m 1
 560 360 l 1
 560 400 l 1
 600 400 l 1
 600 360 l 1
360 120 m 1
 320 120 l 1
 320 160 l 1
 360 160 l 1
 360 120 l 1
360 280 m 1
 320 280 l 1
 320 320 l 1
 360 320 l 1
 360 280 l 1
360 200 m 1
 320 200 l 1
 320 240 l 1
 360 240 l 1
 360 200 l 1
360 160 m 1
 320 160 l 1
 320 200 l 1
 360 200 l 1
 360 160 l 1
360 240 m 1
 320 240 l 1
 320 280 l 1
 360 280 l 1
 360 240 l 1
400 320 m 1
 360 320 l 1
 360 360 l 1
 400 360 l 1
 400 320 l 1
400 120 m 1
 360 120 l 1
 360 160 l 1
 400 160 l 1
 400 120 l 1
440 320 m 1
 400 320 l 1
 400 360 l 1
 440 360 l 1
 440 320 l 1
EndSplineSet
Validated: 5
EndChar

StartChar: E
Encoding: 69 69 8
Width: 1000
Flags: H
LayerCount: 2
Fore
SplineSet
320 80 m 1
 320 120 l 1
 360 120 l 1
 360 80 l 1
 320 80 l 1
280 80 m 1
 280 120 l 1
 320 120 l 1
 320 80 l 1
 280 80 l 1
320 120 m 1
 320 160 l 1
 360 160 l 1
 360 120 l 1
 320 120 l 1
320 160 m 1
 320 200 l 1
 360 200 l 1
 360 160 l 1
 320 160 l 1
320 200 m 1
 320 240 l 1
 360 240 l 1
 360 200 l 1
 320 200 l 1
320 240 m 1
 320 280 l 1
 360 280 l 1
 360 240 l 1
 320 240 l 1
320 280 m 1
 320 320 l 1
 360 320 l 1
 360 280 l 1
 320 280 l 1
320 320 m 1
 320 360 l 1
 360 360 l 1
 360 320 l 1
 320 320 l 1
320 360 m 1
 320 400 l 1
 360 400 l 1
 360 360 l 1
 320 360 l 1
320 400 m 1
 320 440 l 1
 360 440 l 1
 360 400 l 1
 320 400 l 1
320 440 m 1
 320 480 l 1
 360 480 l 1
 360 440 l 1
 320 440 l 1
320 480 m 1
 320 520 l 1
 360 520 l 1
 360 480 l 1
 320 480 l 1
320 520 m 1
 320 560 l 1
 360 560 l 1
 360 520 l 1
 320 520 l 1
320 560 m 1
 320 600 l 1
 360 600 l 1
 360 560 l 1
 320 560 l 1
320 600 m 1
 320 640 l 1
 360 640 l 1
 360 600 l 1
 320 600 l 1
360 120 m 1
 360 160 l 1
 400 160 l 1
 400 120 l 1
 360 120 l 1
360 160 m 1
 360 200 l 1
 400 200 l 1
 400 160 l 1
 360 160 l 1
360 200 m 1
 360 240 l 1
 400 240 l 1
 400 200 l 1
 360 200 l 1
360 240 m 1
 360 280 l 1
 400 280 l 1
 400 240 l 1
 360 240 l 1
360 280 m 1
 360 320 l 1
 400 320 l 1
 400 280 l 1
 360 280 l 1
360 320 m 1
 360 360 l 1
 400 360 l 1
 400 320 l 1
 360 320 l 1
360 360 m 1
 360 400 l 1
 400 400 l 1
 400 360 l 1
 360 360 l 1
360 400 m 1
 360 440 l 1
 400 440 l 1
 400 400 l 1
 360 400 l 1
360 440 m 1
 360 480 l 1
 400 480 l 1
 400 440 l 1
 360 440 l 1
360 480 m 1
 360 520 l 1
 400 520 l 1
 400 480 l 1
 360 480 l 1
360 520 m 1
 360 560 l 1
 400 560 l 1
 400 520 l 1
 360 520 l 1
360 600 m 1
 360 640 l 1
 400 640 l 1
 400 600 l 1
 360 600 l 1
280 600 m 1
 280 640 l 1
 320 640 l 1
 320 600 l 1
 280 600 l 1
400 80 m 1
 400 120 l 1
 440 120 l 1
 440 80 l 1
 400 80 l 1
600 80 m 1
 600 120 l 1
 640 120 l 1
 640 80 l 1
 600 80 l 1
560 80 m 1
 560 120 l 1
 600 120 l 1
 600 80 l 1
 560 80 l 1
520 80 m 1
 520 120 l 1
 560 120 l 1
 560 80 l 1
 520 80 l 1
480 80 m 1
 480 120 l 1
 520 120 l 1
 520 80 l 1
 480 80 l 1
440 80 m 1
 440 120 l 1
 480 120 l 1
 480 80 l 1
 440 80 l 1
400 600 m 1
 400 640 l 1
 440 640 l 1
 440 600 l 1
 400 600 l 1
440 600 m 1
 440 640 l 1
 480 640 l 1
 480 600 l 1
 440 600 l 1
480 600 m 1
 480 640 l 1
 520 640 l 1
 520 600 l 1
 480 600 l 1
480 600 m 1
 480 640 l 1
 520 640 l 1
 520 600 l 1
 480 600 l 1
520 600 m 1
 520 640 l 1
 560 640 l 1
 560 600 l 1
 520 600 l 1
560 600 m 1
 560 640 l 1
 600 640 l 1
 600 600 l 1
 560 600 l 1
480 320 m 1
 480 360 l 1
 520 360 l 1
 520 320 l 1
 480 320 l 1
440 320 m 1
 440 360 l 1
 480 360 l 1
 480 320 l 1
 440 320 l 1
400 320 m 1
 400 360 l 1
 440 360 l 1
 440 320 l 1
 400 320 l 1
640 80 m 1
 640 120 l 1
 680 120 l 1
 680 80 l 1
 640 80 l 1
600 600 m 1
 600 640 l 1
 640 640 l 1
 640 600 l 1
 600 600 l 1
640 600 m 1
 640 640 l 1
 680 640 l 1
 680 600 l 1
 640 600 l 1
680 560 m 1
 680 600 l 1
 720 600 l 1
 720 560 l 1
 680 560 l 1
680 120 m 1
 680 160 l 1
 720 160 l 1
 720 120 l 1
 680 120 l 1
640 120 m 1
 640 160 l 1
 680 160 l 1
 680 120 l 1
 640 120 l 1
640 560 m 1
 640 600 l 1
 680 600 l 1
 680 560 l 1
 640 560 l 1
680 520 m 1
 680 560 l 1
 720 560 l 1
 720 520 l 1
 680 520 l 1
680 160 m 1
 680 200 l 1
 720 200 l 1
 720 160 l 1
 680 160 l 1
680 600 m 1
 680 640 l 1
 720 640 l 1
 720 600 l 1
 680 600 l 1
680 80 m 1
 680 120 l 1
 720 120 l 1
 720 80 l 1
 680 80 l 1
560 320 m 1
 560 360 l 1
 600 360 l 1
 600 320 l 1
 560 320 l 1
520 320 m 1
 520 360 l 1
 560 360 l 1
 560 320 l 1
 520 320 l 1
600 360 m 1
 600 400 l 1
 640 400 l 1
 640 360 l 1
 600 360 l 1
EndSplineSet
Validated: 5
EndChar

StartChar: e
Encoding: 101 101 9
Width: 1000
Flags: H
LayerCount: 2
Fore
SplineSet
480 480 m 1
 480 520 l 1
 520 520 l 1
 520 480 l 1
 480 480 l 1
440 480 m 1
 440 520 l 1
 480 520 l 1
 480 480 l 1
 440 480 l 1
400 440 m 1
 400 480 l 1
 440 480 l 1
 440 440 l 1
 400 440 l 1
360 440 m 1
 360 480 l 1
 400 480 l 1
 400 440 l 1
 360 440 l 1
320 400 m 1
 320 440 l 1
 360 440 l 1
 360 400 l 1
 320 400 l 1
280 320 m 1
 280 360 l 1
 320 360 l 1
 320 320 l 1
 280 320 l 1
320 360 m 1
 320 400 l 1
 360 400 l 1
 360 360 l 1
 320 360 l 1
560 480 m 1
 560 520 l 1
 600 520 l 1
 600 480 l 1
 560 480 l 1
520 480 m 1
 520 520 l 1
 560 520 l 1
 560 480 l 1
 520 480 l 1
600 440 m 1
 600 480 l 1
 640 480 l 1
 640 440 l 1
 600 440 l 1
640 400 m 1
 640 440 l 1
 680 440 l 1
 680 400 l 1
 640 400 l 1
680 360 m 1
 680 400 l 1
 720 400 l 1
 720 360 l 1
 680 360 l 1
640 360 m 1
 640 400 l 1
 680 400 l 1
 680 360 l 1
 640 360 l 1
680 400 m 1
 680 440 l 1
 720 440 l 1
 720 400 l 1
 680 400 l 1
480 120 m 1
 520 120 l 1
 520 80 l 1
 480 80 l 1
 480 120 l 1
440 120 m 1
 480 120 l 1
 480 80 l 1
 440 80 l 1
 440 120 l 1
400 160 m 1
 440 160 l 1
 440 120 l 1
 400 120 l 1
 400 160 l 1
360 160 m 1
 400 160 l 1
 400 120 l 1
 360 120 l 1
 360 160 l 1
320 200 m 1
 360 200 l 1
 360 160 l 1
 320 160 l 1
 320 200 l 1
280 280 m 1
 320 280 l 1
 320 240 l 1
 280 240 l 1
 280 280 l 1
320 240 m 1
 360 240 l 1
 360 200 l 1
 320 200 l 1
 320 240 l 1
280 320 m 1
 320 320 l 1
 320 280 l 1
 280 280 l 1
 280 320 l 1
560 120 m 1
 600 120 l 1
 600 80 l 1
 560 80 l 1
 560 120 l 1
520 120 m 1
 560 120 l 1
 560 80 l 1
 520 80 l 1
 520 120 l 1
600 160 m 1
 640 160 l 1
 640 120 l 1
 600 120 l 1
 600 160 l 1
640 160 m 1
 680 160 l 1
 680 120 l 1
 640 120 l 1
 640 160 l 1
680 200 m 1
 720 200 l 1
 720 160 l 1
 680 160 l 1
 680 200 l 1
320 320 m 1
 320 360 l 1
 360 360 l 1
 360 320 l 1
 320 320 l 1
320 280 m 1
 360 280 l 1
 360 240 l 1
 320 240 l 1
 320 280 l 1
320 320 m 1
 360 320 l 1
 360 280 l 1
 320 280 l 1
 320 320 l 1
360 400 m 1
 360 440 l 1
 400 440 l 1
 400 400 l 1
 360 400 l 1
360 360 m 1
 360 400 l 1
 400 400 l 1
 400 360 l 1
 360 360 l 1
360 160 m 1
 360 200 l 1
 400 200 l 1
 400 160 l 1
 360 160 l 1
360 200 m 1
 360 240 l 1
 400 240 l 1
 400 200 l 1
 360 200 l 1
640 440 m 1
 640 480 l 1
 680 480 l 1
 680 440 l 1
 640 440 l 1
360 320 m 1
 360 360 l 1
 400 360 l 1
 400 320 l 1
 360 320 l 1
400 320 m 1
 400 360 l 1
 440 360 l 1
 440 320 l 1
 400 320 l 1
440 320 m 1
 440 360 l 1
 480 360 l 1
 480 320 l 1
 440 320 l 1
480 320 m 1
 480 360 l 1
 520 360 l 1
 520 320 l 1
 480 320 l 1
520 320 m 1
 520 360 l 1
 560 360 l 1
 560 320 l 1
 520 320 l 1
560 320 m 1
 560 360 l 1
 600 360 l 1
 600 320 l 1
 560 320 l 1
600 320 m 1
 600 360 l 1
 640 360 l 1
 640 320 l 1
 600 320 l 1
640 320 m 1
 640 360 l 1
 680 360 l 1
 680 320 l 1
 640 320 l 1
EndSplineSet
Validated: 5
EndChar

StartChar: f
Encoding: 102 102 10
Width: 1000
Flags: H
LayerCount: 2
Fore
SplineSet
480 160 m 1
 480 200 l 1
 520 200 l 1
 520 160 l 1
 480 160 l 1
440 80 m 1
 440 120 l 1
 480 120 l 1
 480 80 l 1
 440 80 l 1
480 80 m 1
 480 120 l 1
 520 120 l 1
 520 80 l 1
 480 80 l 1
480 240 m 1
 480 280 l 1
 520 280 l 1
 520 240 l 1
 480 240 l 1
480 200 m 1
 480 240 l 1
 520 240 l 1
 520 200 l 1
 480 200 l 1
480 40 m 1
 480 80 l 1
 520 80 l 1
 520 40 l 1
 480 40 l 1
400 80 m 1
 400 120 l 1
 440 120 l 1
 440 80 l 1
 400 80 l 1
520 80 m 1
 520 120 l 1
 560 120 l 1
 560 80 l 1
 520 80 l 1
520 120 m 1
 520 160 l 1
 560 160 l 1
 560 120 l 1
 520 120 l 1
520 160 m 1
 520 200 l 1
 560 200 l 1
 560 160 l 1
 520 160 l 1
520 240 m 1
 520 280 l 1
 560 280 l 1
 560 240 l 1
 520 240 l 1
520 200 m 1
 520 240 l 1
 560 240 l 1
 560 200 l 1
 520 200 l 1
560 80 m 1
 560 120 l 1
 600 120 l 1
 600 80 l 1
 560 80 l 1
520 40 m 1
 520 80 l 1
 560 80 l 1
 560 40 l 1
 520 40 l 1
560 0 m 1
 560 -40 l 1
 520 -40 l 1
 520 0 l 1
 560 0 l 1
560 -40 m 1
 560 -80 l 1
 520 -80 l 1
 520 -40 l 1
 560 -40 l 1
560 0 m 1
 560 -40 l 1
 520 -40 l 1
 520 0 l 1
 560 0 l 1
560 40 m 1
 560 0 l 1
 520 0 l 1
 520 40 l 1
 560 40 l 1
520 -80 m 1
 520 -120 l 1
 480 -120 l 1
 480 -80 l 1
 520 -80 l 1
440 -120 m 1
 440 -160 l 1
 400 -160 l 1
 400 -120 l 1
 440 -120 l 1
400 -120 m 1
 400 -160 l 1
 360 -160 l 1
 360 -120 l 1
 400 -120 l 1
320 -80 m 1
 320 -120 l 1
 280 -120 l 1
 280 -80 l 1
 320 -80 l 1
360 40 m 1
 360 0 l 1
 320 0 l 1
 320 40 l 1
 360 40 l 1
320 -40 m 1
 320 -80 l 1
 280 -80 l 1
 280 -40 l 1
 320 -40 l 1
320 0 m 1
 320 -40 l 1
 280 -40 l 1
 280 0 l 1
 320 0 l 1
320 -40 m 1
 320 -80 l 1
 280 -80 l 1
 280 -40 l 1
 320 -40 l 1
360 -120 m 1
 360 -160 l 1
 320 -160 l 1
 320 -120 l 1
 360 -120 l 1
360 0 m 1
 360 -40 l 1
 320 -40 l 1
 320 0 l 1
 360 0 l 1
520 0 m 1
 520 -40 l 1
 480 -40 l 1
 480 0 l 1
 520 0 l 1
520 -40 m 1
 520 -80 l 1
 480 -80 l 1
 480 -40 l 1
 520 -40 l 1
520 40 m 1
 520 0 l 1
 480 0 l 1
 480 40 l 1
 520 40 l 1
480 -80 m 1
 480 -120 l 1
 440 -120 l 1
 440 -80 l 1
 480 -80 l 1
480 -40 m 1
 480 -80 l 1
 440 -80 l 1
 440 -40 l 1
 480 -40 l 1
480 280 m 1
 480 320 l 1
 520 320 l 1
 520 280 l 1
 480 280 l 1
520 400 m 1
 520 440 l 1
 560 440 l 1
 560 400 l 1
 520 400 l 1
480 320 m 1
 480 360 l 1
 520 360 l 1
 520 320 l 1
 480 320 l 1
520 280 m 1
 520 320 l 1
 560 320 l 1
 560 280 l 1
 520 280 l 1
520 360 m 1
 520 400 l 1
 560 400 l 1
 560 360 l 1
 520 360 l 1
520 320 m 1
 520 360 l 1
 560 360 l 1
 560 320 l 1
 520 320 l 1
560 440 m 1
 560 480 l 1
 600 480 l 1
 600 440 l 1
 560 440 l 1
600 480 m 1
 600 520 l 1
 640 520 l 1
 640 480 l 1
 600 480 l 1
680 440 m 1
 680 480 l 1
 720 480 l 1
 720 440 l 1
 680 440 l 1
640 480 m 1
 640 520 l 1
 680 520 l 1
 680 480 l 1
 640 480 l 1
680 400 m 1
 680 440 l 1
 720 440 l 1
 720 400 l 1
 680 400 l 1
680 400 m 1
 680 440 l 1
 720 440 l 1
 720 400 l 1
 680 400 l 1
480 360 m 1
 480 400 l 1
 520 400 l 1
 520 360 l 1
 480 360 l 1
480 400 m 1
 480 440 l 1
 520 440 l 1
 520 400 l 1
 480 400 l 1
520 440 m 1
 520 480 l 1
 560 480 l 1
 560 440 l 1
 520 440 l 1
560 480 m 1
 560 520 l 1
 600 520 l 1
 600 480 l 1
 560 480 l 1
640 360 m 1
 640 400 l 1
 680 400 l 1
 680 360 l 1
 640 360 l 1
EndSplineSet
Validated: 5
EndChar

StartChar: F
Encoding: 70 70 11
Width: 1000
Flags: H
LayerCount: 2
Fore
SplineSet
320 80 m 1
 320 120 l 1
 360 120 l 1
 360 80 l 1
 320 80 l 1
280 80 m 1
 280 120 l 1
 320 120 l 1
 320 80 l 1
 280 80 l 1
360 80 m 1
 360 120 l 1
 400 120 l 1
 400 80 l 1
 360 80 l 1
320 120 m 1
 320 160 l 1
 360 160 l 1
 360 120 l 1
 320 120 l 1
320 160 m 1
 320 200 l 1
 360 200 l 1
 360 160 l 1
 320 160 l 1
320 200 m 1
 320 240 l 1
 360 240 l 1
 360 200 l 1
 320 200 l 1
320 240 m 1
 320 280 l 1
 360 280 l 1
 360 240 l 1
 320 240 l 1
320 280 m 1
 320 320 l 1
 360 320 l 1
 360 280 l 1
 320 280 l 1
320 320 m 1
 320 360 l 1
 360 360 l 1
 360 320 l 1
 320 320 l 1
320 360 m 1
 320 400 l 1
 360 400 l 1
 360 360 l 1
 320 360 l 1
320 400 m 1
 320 440 l 1
 360 440 l 1
 360 400 l 1
 320 400 l 1
320 440 m 1
 320 480 l 1
 360 480 l 1
 360 440 l 1
 320 440 l 1
320 480 m 1
 320 520 l 1
 360 520 l 1
 360 480 l 1
 320 480 l 1
320 520 m 1
 320 560 l 1
 360 560 l 1
 360 520 l 1
 320 520 l 1
320 560 m 1
 320 600 l 1
 360 600 l 1
 360 560 l 1
 320 560 l 1
320 600 m 1
 320 640 l 1
 360 640 l 1
 360 600 l 1
 320 600 l 1
360 120 m 1
 360 160 l 1
 400 160 l 1
 400 120 l 1
 360 120 l 1
360 160 m 1
 360 200 l 1
 400 200 l 1
 400 160 l 1
 360 160 l 1
360 200 m 1
 360 240 l 1
 400 240 l 1
 400 200 l 1
 360 200 l 1
360 240 m 1
 360 280 l 1
 400 280 l 1
 400 240 l 1
 360 240 l 1
360 320 m 1
 360 360 l 1
 400 360 l 1
 400 320 l 1
 360 320 l 1
360 360 m 1
 360 400 l 1
 400 400 l 1
 400 360 l 1
 360 360 l 1
360 400 m 1
 360 440 l 1
 400 440 l 1
 400 400 l 1
 360 400 l 1
360 440 m 1
 360 480 l 1
 400 480 l 1
 400 440 l 1
 360 440 l 1
360 480 m 1
 360 520 l 1
 400 520 l 1
 400 480 l 1
 360 480 l 1
360 520 m 1
 360 560 l 1
 400 560 l 1
 400 520 l 1
 360 520 l 1
360 600 m 1
 360 640 l 1
 400 640 l 1
 400 600 l 1
 360 600 l 1
280 600 m 1
 280 640 l 1
 320 640 l 1
 320 600 l 1
 280 600 l 1
400 80 m 1
 400 120 l 1
 440 120 l 1
 440 80 l 1
 400 80 l 1
400 600 m 1
 400 640 l 1
 440 640 l 1
 440 600 l 1
 400 600 l 1
440 600 m 1
 440 640 l 1
 480 640 l 1
 480 600 l 1
 440 600 l 1
480 600 m 1
 480 640 l 1
 520 640 l 1
 520 600 l 1
 480 600 l 1
480 600 m 1
 480 640 l 1
 520 640 l 1
 520 600 l 1
 480 600 l 1
520 600 m 1
 520 640 l 1
 560 640 l 1
 560 600 l 1
 520 600 l 1
560 600 m 1
 560 640 l 1
 600 640 l 1
 600 600 l 1
 560 600 l 1
480 320 m 1
 480 360 l 1
 520 360 l 1
 520 320 l 1
 480 320 l 1
440 320 m 1
 440 360 l 1
 480 360 l 1
 480 320 l 1
 440 320 l 1
400 320 m 1
 400 360 l 1
 440 360 l 1
 440 320 l 1
 400 320 l 1
600 600 m 1
 600 640 l 1
 640 640 l 1
 640 600 l 1
 600 600 l 1
640 600 m 1
 640 640 l 1
 680 640 l 1
 680 600 l 1
 640 600 l 1
680 560 m 1
 680 600 l 1
 720 600 l 1
 720 560 l 1
 680 560 l 1
640 560 m 1
 640 600 l 1
 680 600 l 1
 680 560 l 1
 640 560 l 1
680 520 m 1
 680 560 l 1
 720 560 l 1
 720 520 l 1
 680 520 l 1
680 600 m 1
 680 640 l 1
 720 640 l 1
 720 600 l 1
 680 600 l 1
560 320 m 1
 560 360 l 1
 600 360 l 1
 600 320 l 1
 560 320 l 1
520 320 m 1
 520 360 l 1
 560 360 l 1
 560 320 l 1
 520 320 l 1
600 360 m 1
 600 400 l 1
 640 400 l 1
 640 360 l 1
 600 360 l 1
EndSplineSet
Validated: 5
EndChar

StartChar: g
Encoding: 103 103 12
Width: 1000
Flags: H
LayerCount: 2
Fore
SplineSet
480 120 m 1
 480 160 l 1
 520 160 l 1
 520 120 l 1
 480 120 l 1
600 40 m 1
 600 80 l 1
 640 80 l 1
 640 40 l 1
 600 40 l 1
440 120 m 1
 440 160 l 1
 480 160 l 1
 480 120 l 1
 440 120 l 1
520 120 m 1
 520 160 l 1
 560 160 l 1
 560 120 l 1
 520 120 l 1
640 80 m 1
 640 120 l 1
 680 120 l 1
 680 80 l 1
 640 80 l 1
640 120 m 1
 640 160 l 1
 680 160 l 1
 680 120 l 1
 640 120 l 1
680 0 m 1
 680 -40 l 1
 640 -40 l 1
 640 0 l 1
 680 0 l 1
680 -40 m 1
 680 -80 l 1
 640 -80 l 1
 640 -40 l 1
 680 -40 l 1
680 0 m 1
 680 -40 l 1
 640 -40 l 1
 640 0 l 1
 680 0 l 1
680 40 m 1
 680 0 l 1
 640 0 l 1
 640 40 l 1
 680 40 l 1
640 -80 m 1
 640 -120 l 1
 600 -120 l 1
 600 -80 l 1
 640 -80 l 1
560 -120 m 1
 560 -160 l 1
 520 -160 l 1
 520 -120 l 1
 560 -120 l 1
480 -120 m 1
 480 -160 l 1
 440 -160 l 1
 440 -120 l 1
 480 -120 l 1
360 -80 m 1
 360 -120 l 1
 320 -120 l 1
 320 -80 l 1
 360 -80 l 1
400 40 m 1
 400 0 l 1
 360 0 l 1
 360 40 l 1
 400 40 l 1
360 -40 m 1
 360 -80 l 1
 320 -80 l 1
 320 -40 l 1
 360 -40 l 1
360 0 m 1
 360 -40 l 1
 320 -40 l 1
 320 0 l 1
 360 0 l 1
360 -40 m 1
 360 -80 l 1
 320 -80 l 1
 320 -40 l 1
 360 -40 l 1
440 -120 m 1
 440 -160 l 1
 400 -160 l 1
 400 -120 l 1
 440 -120 l 1
400 0 m 1
 400 -40 l 1
 360 -40 l 1
 360 0 l 1
 400 0 l 1
640 0 m 1
 640 -40 l 1
 600 -40 l 1
 600 0 l 1
 640 0 l 1
640 -40 m 1
 640 -80 l 1
 600 -80 l 1
 600 -40 l 1
 640 -40 l 1
640 40 m 1
 640 0 l 1
 600 0 l 1
 600 40 l 1
 640 40 l 1
600 -80 m 1
 600 -120 l 1
 560 -120 l 1
 560 -80 l 1
 600 -80 l 1
600 -120 m 1
 600 -160 l 1
 560 -160 l 1
 560 -120 l 1
 600 -120 l 1
600 120 m 1
 600 160 l 1
 640 160 l 1
 640 120 l 1
 600 120 l 1
400 120 m 1
 400 160 l 1
 440 160 l 1
 440 120 l 1
 400 120 l 1
320 120 m 1
 320 160 l 1
 360 160 l 1
 360 120 l 1
 320 120 l 1
320 160 m 1
 320 200 l 1
 360 200 l 1
 360 160 l 1
 320 160 l 1
280 240 m 1
 280 280 l 1
 320 280 l 1
 320 240 l 1
 280 240 l 1
280 280 m 1
 280 320 l 1
 320 320 l 1
 320 280 l 1
 280 280 l 1
280 320 m 1
 280 360 l 1
 320 360 l 1
 320 320 l 1
 280 320 l 1
280 360 m 1
 280 400 l 1
 320 400 l 1
 320 360 l 1
 280 360 l 1
320 400 m 1
 320 440 l 1
 360 440 l 1
 360 400 l 1
 320 400 l 1
360 440 m 1
 360 480 l 1
 400 480 l 1
 400 440 l 1
 360 440 l 1
400 480 m 1
 400 520 l 1
 440 520 l 1
 440 480 l 1
 400 480 l 1
360 120 m 1
 360 160 l 1
 400 160 l 1
 400 120 l 1
 360 120 l 1
280 200 m 1
 280 240 l 1
 320 240 l 1
 320 200 l 1
 280 200 l 1
440 480 m 1
 440 520 l 1
 480 520 l 1
 480 480 l 1
 440 480 l 1
480 480 m 1
 480 520 l 1
 520 520 l 1
 520 480 l 1
 480 480 l 1
480 480 m 1
 480 520 l 1
 520 520 l 1
 520 480 l 1
 480 480 l 1
520 480 m 1
 520 520 l 1
 560 520 l 1
 560 480 l 1
 520 480 l 1
560 480 m 1
 560 520 l 1
 600 520 l 1
 600 480 l 1
 560 480 l 1
560 480 m 1
 560 520 l 1
 600 520 l 1
 600 480 l 1
 560 480 l 1
600 480 m 1
 600 520 l 1
 640 520 l 1
 640 480 l 1
 600 480 l 1
640 480 m 1
 640 520 l 1
 680 520 l 1
 680 480 l 1
 640 480 l 1
640 480 m 1
 640 520 l 1
 680 520 l 1
 680 480 l 1
 640 480 l 1
600 480 m 1
 600 520 l 1
 640 520 l 1
 640 480 l 1
 600 480 l 1
640 480 m 1
 640 520 l 1
 680 520 l 1
 680 480 l 1
 640 480 l 1
640 480 m 1
 640 520 l 1
 680 520 l 1
 680 480 l 1
 640 480 l 1
680 480 m 1
 680 520 l 1
 720 520 l 1
 720 480 l 1
 680 480 l 1
680 440 m 1
 680 480 l 1
 720 480 l 1
 720 440 l 1
 680 440 l 1
640 400 m 1
 640 440 l 1
 680 440 l 1
 680 400 l 1
 640 400 l 1
640 360 m 1
 640 400 l 1
 680 400 l 1
 680 360 l 1
 640 360 l 1
640 320 m 1
 640 360 l 1
 680 360 l 1
 680 320 l 1
 640 320 l 1
640 400 m 1
 640 440 l 1
 680 440 l 1
 680 400 l 1
 640 400 l 1
640 360 m 1
 640 400 l 1
 680 400 l 1
 680 360 l 1
 640 360 l 1
640 320 m 1
 640 360 l 1
 680 360 l 1
 680 320 l 1
 640 320 l 1
640 280 m 1
 640 320 l 1
 680 320 l 1
 680 280 l 1
 640 280 l 1
640 240 m 1
 640 280 l 1
 680 280 l 1
 680 240 l 1
 640 240 l 1
640 200 m 1
 640 240 l 1
 680 240 l 1
 680 200 l 1
 640 200 l 1
640 240 m 1
 640 280 l 1
 680 280 l 1
 680 240 l 1
 640 240 l 1
640 200 m 1
 640 240 l 1
 680 240 l 1
 680 200 l 1
 640 200 l 1
640 160 m 1
 640 200 l 1
 680 200 l 1
 680 160 l 1
 640 160 l 1
600 440 m 1
 600 480 l 1
 640 480 l 1
 640 440 l 1
 600 440 l 1
600 400 m 1
 600 440 l 1
 640 440 l 1
 640 400 l 1
 600 400 l 1
600 360 m 1
 600 400 l 1
 640 400 l 1
 640 360 l 1
 600 360 l 1
600 320 m 1
 600 360 l 1
 640 360 l 1
 640 320 l 1
 600 320 l 1
600 400 m 1
 600 440 l 1
 640 440 l 1
 640 400 l 1
 600 400 l 1
600 360 m 1
 600 400 l 1
 640 400 l 1
 640 360 l 1
 600 360 l 1
600 320 m 1
 600 360 l 1
 640 360 l 1
 640 320 l 1
 600 320 l 1
600 280 m 1
 600 320 l 1
 640 320 l 1
 640 280 l 1
 600 280 l 1
600 240 m 1
 600 280 l 1
 640 280 l 1
 640 240 l 1
 600 240 l 1
600 200 m 1
 600 240 l 1
 640 240 l 1
 640 200 l 1
 600 200 l 1
600 240 m 1
 600 280 l 1
 640 280 l 1
 640 240 l 1
 600 240 l 1
600 200 m 1
 600 240 l 1
 640 240 l 1
 640 200 l 1
 600 200 l 1
640 120 m 1
 640 80 l 1
 600 80 l 1
 600 120 l 1
 640 120 l 1
680 80 m 1
 680 40 l 1
 640 40 l 1
 640 80 l 1
 680 80 l 1
560 160 m 1
 560 200 l 1
 600 200 l 1
 600 160 l 1
 560 160 l 1
560 440 m 1
 560 480 l 1
 600 480 l 1
 600 440 l 1
 560 440 l 1
560 200 m 1
 560 240 l 1
 600 240 l 1
 600 200 l 1
 560 200 l 1
560 400 m 1
 560 440 l 1
 600 440 l 1
 600 400 l 1
 560 400 l 1
520 160 m 1
 520 200 l 1
 560 200 l 1
 560 160 l 1
 520 160 l 1
400 -120 m 1
 400 -160 l 1
 360 -160 l 1
 360 -120 l 1
 400 -120 l 1
520 -120 m 1
 520 -160 l 1
 480 -160 l 1
 480 -120 l 1
 520 -120 l 1
EndSplineSet
Validated: 5
EndChar

StartChar: G
Encoding: 71 71 13
Width: 1000
Flags: H
LayerCount: 2
Fore
SplineSet
480 600 m 1
 480 640 l 1
 520 640 l 1
 520 600 l 1
 480 600 l 1
440 600 m 1
 440 640 l 1
 480 640 l 1
 480 600 l 1
 440 600 l 1
400 560 m 1
 400 600 l 1
 440 600 l 1
 440 560 l 1
 400 560 l 1
360 560 m 1
 360 600 l 1
 400 600 l 1
 400 560 l 1
 360 560 l 1
320 520 m 1
 320 560 l 1
 360 560 l 1
 360 520 l 1
 320 520 l 1
280 440 m 1
 280 480 l 1
 320 480 l 1
 320 440 l 1
 280 440 l 1
320 480 m 1
 320 520 l 1
 360 520 l 1
 360 480 l 1
 320 480 l 1
280 400 m 1
 280 440 l 1
 320 440 l 1
 320 400 l 1
 280 400 l 1
280 360 m 1
 280 400 l 1
 320 400 l 1
 320 360 l 1
 280 360 l 1
280 360 m 1
 280 400 l 1
 320 400 l 1
 320 360 l 1
 280 360 l 1
560 600 m 1
 560 640 l 1
 600 640 l 1
 600 600 l 1
 560 600 l 1
520 600 m 1
 520 640 l 1
 560 640 l 1
 560 600 l 1
 520 600 l 1
600 560 m 1
 600 600 l 1
 640 600 l 1
 640 560 l 1
 600 560 l 1
640 520 m 1
 640 560 l 1
 680 560 l 1
 680 520 l 1
 640 520 l 1
680 480 m 1
 680 520 l 1
 720 520 l 1
 720 480 l 1
 680 480 l 1
640 480 m 1
 640 520 l 1
 680 520 l 1
 680 480 l 1
 640 480 l 1
680 520 m 1
 680 560 l 1
 720 560 l 1
 720 520 l 1
 680 520 l 1
480 120 m 1
 520 120 l 1
 520 80 l 1
 480 80 l 1
 480 120 l 1
440 120 m 1
 480 120 l 1
 480 80 l 1
 440 80 l 1
 440 120 l 1
400 160 m 1
 440 160 l 1
 440 120 l 1
 400 120 l 1
 400 160 l 1
360 160 m 1
 400 160 l 1
 400 120 l 1
 360 120 l 1
 360 160 l 1
320 200 m 1
 360 200 l 1
 360 160 l 1
 320 160 l 1
 320 200 l 1
280 280 m 1
 320 280 l 1
 320 240 l 1
 280 240 l 1
 280 280 l 1
320 240 m 1
 360 240 l 1
 360 200 l 1
 320 200 l 1
 320 240 l 1
280 320 m 1
 320 320 l 1
 320 280 l 1
 280 280 l 1
 280 320 l 1
280 360 m 1
 320 360 l 1
 320 320 l 1
 280 320 l 1
 280 360 l 1
280 360 m 1
 320 360 l 1
 320 320 l 1
 280 320 l 1
 280 360 l 1
560 120 m 1
 600 120 l 1
 600 80 l 1
 560 80 l 1
 560 120 l 1
520 120 m 1
 560 120 l 1
 560 80 l 1
 520 80 l 1
 520 120 l 1
600 160 m 1
 640 160 l 1
 640 120 l 1
 600 120 l 1
 600 160 l 1
680 200 m 1
 720 200 l 1
 720 160 l 1
 680 160 l 1
 680 200 l 1
680 240 m 1
 720 240 l 1
 720 200 l 1
 680 200 l 1
 680 240 l 1
640 240 m 1
 680 240 l 1
 680 200 l 1
 640 200 l 1
 640 240 l 1
680 120 m 1
 720 120 l 1
 720 80 l 1
 680 80 l 1
 680 120 l 1
320 440 m 1
 320 480 l 1
 360 480 l 1
 360 440 l 1
 320 440 l 1
320 400 m 1
 320 440 l 1
 360 440 l 1
 360 400 l 1
 320 400 l 1
320 360 m 1
 320 400 l 1
 360 400 l 1
 360 360 l 1
 320 360 l 1
320 360 m 1
 320 400 l 1
 360 400 l 1
 360 360 l 1
 320 360 l 1
320 280 m 1
 360 280 l 1
 360 240 l 1
 320 240 l 1
 320 280 l 1
320 320 m 1
 360 320 l 1
 360 280 l 1
 320 280 l 1
 320 320 l 1
320 360 m 1
 360 360 l 1
 360 320 l 1
 320 320 l 1
 320 360 l 1
320 360 m 1
 360 360 l 1
 360 320 l 1
 320 320 l 1
 320 360 l 1
360 520 m 1
 360 560 l 1
 400 560 l 1
 400 520 l 1
 360 520 l 1
360 480 m 1
 360 520 l 1
 400 520 l 1
 400 480 l 1
 360 480 l 1
360 160 m 1
 360 200 l 1
 400 200 l 1
 400 160 l 1
 360 160 l 1
360 200 m 1
 360 240 l 1
 400 240 l 1
 400 200 l 1
 360 200 l 1
360 240 m 1
 360 280 l 1
 400 280 l 1
 400 240 l 1
 360 240 l 1
360 440 m 1
 360 480 l 1
 400 480 l 1
 400 440 l 1
 360 440 l 1
640 560 m 1
 640 600 l 1
 680 600 l 1
 680 560 l 1
 640 560 l 1
640 200 m 1
 680 200 l 1
 680 160 l 1
 640 160 l 1
 640 200 l 1
600 280 m 1
 640 280 l 1
 640 240 l 1
 600 240 l 1
 600 280 l 1
640 280 m 1
 680 280 l 1
 680 240 l 1
 640 240 l 1
 640 280 l 1
680 280 m 1
 720 280 l 1
 720 240 l 1
 680 240 l 1
 680 280 l 1
680 160 m 1
 720 160 l 1
 720 120 l 1
 680 120 l 1
 680 160 l 1
EndSplineSet
Validated: 5
EndChar

StartChar: H
Encoding: 72 72 14
Width: 1000
Flags: H
LayerCount: 2
Fore
SplineSet
320 80 m 1
 320 120 l 1
 360 120 l 1
 360 80 l 1
 320 80 l 1
320 120 m 1
 320 160 l 1
 360 160 l 1
 360 120 l 1
 320 120 l 1
320 160 m 1
 320 200 l 1
 360 200 l 1
 360 160 l 1
 320 160 l 1
320 200 m 1
 320 240 l 1
 360 240 l 1
 360 200 l 1
 320 200 l 1
320 240 m 1
 320 280 l 1
 360 280 l 1
 360 240 l 1
 320 240 l 1
280 80 m 1
 280 120 l 1
 320 120 l 1
 320 80 l 1
 280 80 l 1
360 80 m 1
 360 120 l 1
 400 120 l 1
 400 80 l 1
 360 80 l 1
600 240 m 1
 600 280 l 1
 640 280 l 1
 640 240 l 1
 600 240 l 1
600 200 m 1
 600 240 l 1
 640 240 l 1
 640 200 l 1
 600 200 l 1
600 160 m 1
 600 200 l 1
 640 200 l 1
 640 160 l 1
 600 160 l 1
600 120 m 1
 600 160 l 1
 640 160 l 1
 640 120 l 1
 600 120 l 1
600 80 m 1
 600 120 l 1
 640 120 l 1
 640 80 l 1
 600 80 l 1
640 80 m 1
 640 120 l 1
 680 120 l 1
 680 80 l 1
 640 80 l 1
560 80 m 1
 560 120 l 1
 600 120 l 1
 600 80 l 1
 560 80 l 1
640 240 m 1
 640 280 l 1
 680 280 l 1
 680 240 l 1
 640 240 l 1
640 200 m 1
 640 240 l 1
 680 240 l 1
 680 200 l 1
 640 200 l 1
640 160 m 1
 640 200 l 1
 680 200 l 1
 680 160 l 1
 640 160 l 1
640 120 m 1
 640 160 l 1
 680 160 l 1
 680 120 l 1
 640 120 l 1
680 80 m 1
 680 120 l 1
 720 120 l 1
 720 80 l 1
 680 80 l 1
320 640 m 1
 360 640 l 1
 360 600 l 1
 320 600 l 1
 320 640 l 1
320 600 m 1
 360 600 l 1
 360 560 l 1
 320 560 l 1
 320 600 l 1
320 560 m 1
 360 560 l 1
 360 520 l 1
 320 520 l 1
 320 560 l 1
320 520 m 1
 360 520 l 1
 360 480 l 1
 320 480 l 1
 320 520 l 1
320 480 m 1
 360 480 l 1
 360 440 l 1
 320 440 l 1
 320 480 l 1
280 640 m 1
 320 640 l 1
 320 600 l 1
 280 600 l 1
 280 640 l 1
360 640 m 1
 400 640 l 1
 400 600 l 1
 360 600 l 1
 360 640 l 1
600 480 m 1
 640 480 l 1
 640 440 l 1
 600 440 l 1
 600 480 l 1
600 520 m 1
 640 520 l 1
 640 480 l 1
 600 480 l 1
 600 520 l 1
600 560 m 1
 640 560 l 1
 640 520 l 1
 600 520 l 1
 600 560 l 1
600 600 m 1
 640 600 l 1
 640 560 l 1
 600 560 l 1
 600 600 l 1
600 640 m 1
 640 640 l 1
 640 600 l 1
 600 600 l 1
 600 640 l 1
640 640 m 1
 680 640 l 1
 680 600 l 1
 640 600 l 1
 640 640 l 1
560 640 m 1
 600 640 l 1
 600 600 l 1
 560 600 l 1
 560 640 l 1
640 480 m 1
 680 480 l 1
 680 440 l 1
 640 440 l 1
 640 480 l 1
640 520 m 1
 680 520 l 1
 680 480 l 1
 640 480 l 1
 640 520 l 1
640 560 m 1
 680 560 l 1
 680 520 l 1
 640 520 l 1
 640 560 l 1
640 600 m 1
 680 600 l 1
 680 560 l 1
 640 560 l 1
 640 600 l 1
320 440 m 1
 360 440 l 1
 360 400 l 1
 320 400 l 1
 320 440 l 1
320 400 m 1
 360 400 l 1
 360 360 l 1
 320 360 l 1
 320 400 l 1
320 360 m 1
 360 360 l 1
 360 320 l 1
 320 320 l 1
 320 360 l 1
320 320 m 1
 360 320 l 1
 360 280 l 1
 320 280 l 1
 320 320 l 1
600 360 m 1
 640 360 l 1
 640 320 l 1
 600 320 l 1
 600 360 l 1
600 400 m 1
 640 400 l 1
 640 360 l 1
 600 360 l 1
 600 400 l 1
600 440 m 1
 640 440 l 1
 640 400 l 1
 600 400 l 1
 600 440 l 1
640 360 m 1
 680 360 l 1
 680 320 l 1
 640 320 l 1
 640 360 l 1
640 320 m 1
 680 320 l 1
 680 280 l 1
 640 280 l 1
 640 320 l 1
640 400 m 1
 680 400 l 1
 680 360 l 1
 640 360 l 1
 640 400 l 1
640 440 m 1
 680 440 l 1
 680 400 l 1
 640 400 l 1
 640 440 l 1
680 640 m 1
 720 640 l 1
 720 600 l 1
 680 600 l 1
 680 640 l 1
560 360 m 1
 600 360 l 1
 600 320 l 1
 560 320 l 1
 560 360 l 1
520 360 m 1
 560 360 l 1
 560 320 l 1
 520 320 l 1
 520 360 l 1
480 360 m 1
 520 360 l 1
 520 320 l 1
 480 320 l 1
 480 360 l 1
440 360 m 1
 480 360 l 1
 480 320 l 1
 440 320 l 1
 440 360 l 1
400 360 m 1
 440 360 l 1
 440 320 l 1
 400 320 l 1
 400 360 l 1
360 360 m 1
 400 360 l 1
 400 320 l 1
 360 320 l 1
 360 360 l 1
EndSplineSet
EndChar

StartChar: h
Encoding: 104 104 15
Width: 1000
Flags: H
LayerCount: 2
Fore
SplineSet
320 80 m 1
 320 120 l 1
 360 120 l 1
 360 80 l 1
 320 80 l 1
280 80 m 1
 280 120 l 1
 320 120 l 1
 320 80 l 1
 280 80 l 1
320 120 m 1
 320 160 l 1
 360 160 l 1
 360 120 l 1
 320 120 l 1
320 160 m 1
 320 200 l 1
 360 200 l 1
 360 160 l 1
 320 160 l 1
320 200 m 1
 320 240 l 1
 360 240 l 1
 360 200 l 1
 320 200 l 1
320 240 m 1
 320 280 l 1
 360 280 l 1
 360 240 l 1
 320 240 l 1
320 280 m 1
 320 320 l 1
 360 320 l 1
 360 280 l 1
 320 280 l 1
320 320 m 1
 320 360 l 1
 360 360 l 1
 360 320 l 1
 320 320 l 1
320 360 m 1
 320 400 l 1
 360 400 l 1
 360 360 l 1
 320 360 l 1
320 400 m 1
 320 440 l 1
 360 440 l 1
 360 400 l 1
 320 400 l 1
320 440 m 1
 320 480 l 1
 360 480 l 1
 360 440 l 1
 320 440 l 1
320 480 m 1
 320 520 l 1
 360 520 l 1
 360 480 l 1
 320 480 l 1
320 520 m 1
 320 560 l 1
 360 560 l 1
 360 520 l 1
 320 520 l 1
320 560 m 1
 320 600 l 1
 360 600 l 1
 360 560 l 1
 320 560 l 1
320 600 m 1
 320 640 l 1
 360 640 l 1
 360 600 l 1
 320 600 l 1
360 120 m 1
 360 160 l 1
 400 160 l 1
 400 120 l 1
 360 120 l 1
360 160 m 1
 360 200 l 1
 400 200 l 1
 400 160 l 1
 360 160 l 1
360 200 m 1
 360 240 l 1
 400 240 l 1
 400 200 l 1
 360 200 l 1
360 240 m 1
 360 280 l 1
 400 280 l 1
 400 240 l 1
 360 240 l 1
360 280 m 1
 360 320 l 1
 400 320 l 1
 400 280 l 1
 360 280 l 1
360 320 m 1
 360 360 l 1
 400 360 l 1
 400 320 l 1
 360 320 l 1
360 360 m 1
 360 400 l 1
 400 400 l 1
 400 360 l 1
 360 360 l 1
360 400 m 1
 360 440 l 1
 400 440 l 1
 400 400 l 1
 360 400 l 1
360 440 m 1
 360 480 l 1
 400 480 l 1
 400 440 l 1
 360 440 l 1
360 480 m 1
 360 520 l 1
 400 520 l 1
 400 480 l 1
 360 480 l 1
360 520 m 1
 360 560 l 1
 400 560 l 1
 400 520 l 1
 360 520 l 1
360 560 m 1
 360 600 l 1
 400 600 l 1
 400 560 l 1
 360 560 l 1
360 600 m 1
 360 640 l 1
 400 640 l 1
 400 600 l 1
 360 600 l 1
280 600 m 1
 280 640 l 1
 320 640 l 1
 320 600 l 1
 280 600 l 1
400 320 m 1
 400 360 l 1
 440 360 l 1
 440 320 l 1
 400 320 l 1
520 360 m 1
 520 400 l 1
 560 400 l 1
 560 360 l 1
 520 360 l 1
400 600 m 1
 400 640 l 1
 440 640 l 1
 440 600 l 1
 400 600 l 1
480 360 m 1
 480 400 l 1
 520 400 l 1
 520 360 l 1
 480 360 l 1
440 360 m 1
 440 400 l 1
 480 400 l 1
 480 360 l 1
 440 360 l 1
560 360 m 1
 560 400 l 1
 600 400 l 1
 600 360 l 1
 560 360 l 1
600 320 m 1
 600 360 l 1
 640 360 l 1
 640 320 l 1
 600 320 l 1
640 280 m 1
 640 320 l 1
 680 320 l 1
 680 280 l 1
 640 280 l 1
640 240 m 1
 640 280 l 1
 680 280 l 1
 680 240 l 1
 640 240 l 1
640 200 m 1
 640 240 l 1
 680 240 l 1
 680 200 l 1
 640 200 l 1
640 160 m 1
 640 200 l 1
 680 200 l 1
 680 160 l 1
 640 160 l 1
640 160 m 1
 640 200 l 1
 680 200 l 1
 680 160 l 1
 640 160 l 1
640 120 m 1
 640 160 l 1
 680 160 l 1
 680 120 l 1
 640 120 l 1
640 80 m 1
 640 120 l 1
 680 120 l 1
 680 80 l 1
 640 80 l 1
680 80 m 1
 680 120 l 1
 720 120 l 1
 720 80 l 1
 680 80 l 1
600 80 m 1
 600 120 l 1
 640 120 l 1
 640 80 l 1
 600 80 l 1
600 280 m 1
 600 320 l 1
 640 320 l 1
 640 280 l 1
 600 280 l 1
600 240 m 1
 600 280 l 1
 640 280 l 1
 640 240 l 1
 600 240 l 1
600 200 m 1
 600 240 l 1
 640 240 l 1
 640 200 l 1
 600 200 l 1
600 160 m 1
 600 200 l 1
 640 200 l 1
 640 160 l 1
 600 160 l 1
600 160 m 1
 600 200 l 1
 640 200 l 1
 640 160 l 1
 600 160 l 1
600 120 m 1
 600 160 l 1
 640 160 l 1
 640 120 l 1
 600 120 l 1
560 80 m 1
 560 120 l 1
 600 120 l 1
 600 80 l 1
 560 80 l 1
560 320 m 1
 560 360 l 1
 600 360 l 1
 600 320 l 1
 560 320 l 1
EndSplineSet
EndChar

StartChar: I
Encoding: 73 73 16
Width: 1000
Flags: H
LayerCount: 2
Fore
SplineSet
460 240 m 1
 460 280 l 1
 500 280 l 1
 500 240 l 1
 460 240 l 1
460 200 m 1
 460 240 l 1
 500 240 l 1
 500 200 l 1
 460 200 l 1
460 160 m 1
 460 200 l 1
 500 200 l 1
 500 160 l 1
 460 160 l 1
460 120 m 1
 460 160 l 1
 500 160 l 1
 500 120 l 1
 460 120 l 1
460 80 m 1
 460 120 l 1
 500 120 l 1
 500 80 l 1
 460 80 l 1
500 80 m 1
 500 120 l 1
 540 120 l 1
 540 80 l 1
 500 80 l 1
500 240 m 1
 500 280 l 1
 540 280 l 1
 540 240 l 1
 500 240 l 1
500 200 m 1
 500 240 l 1
 540 240 l 1
 540 200 l 1
 500 200 l 1
500 160 m 1
 500 200 l 1
 540 200 l 1
 540 160 l 1
 500 160 l 1
500 120 m 1
 500 160 l 1
 540 160 l 1
 540 120 l 1
 500 120 l 1
540 80 m 1
 540 120 l 1
 580 120 l 1
 580 80 l 1
 540 80 l 1
460 480 m 1
 500 480 l 1
 500 440 l 1
 460 440 l 1
 460 480 l 1
460 520 m 1
 500 520 l 1
 500 480 l 1
 460 480 l 1
 460 520 l 1
460 560 m 1
 500 560 l 1
 500 520 l 1
 460 520 l 1
 460 560 l 1
460 600 m 1
 500 600 l 1
 500 560 l 1
 460 560 l 1
 460 600 l 1
460 640 m 1
 500 640 l 1
 500 600 l 1
 460 600 l 1
 460 640 l 1
500 640 m 1
 540 640 l 1
 540 600 l 1
 500 600 l 1
 500 640 l 1
500 480 m 1
 540 480 l 1
 540 440 l 1
 500 440 l 1
 500 480 l 1
500 520 m 1
 540 520 l 1
 540 480 l 1
 500 480 l 1
 500 520 l 1
500 560 m 1
 540 560 l 1
 540 520 l 1
 500 520 l 1
 500 560 l 1
460 360 m 1
 500 360 l 1
 500 320 l 1
 460 320 l 1
 460 360 l 1
460 400 m 1
 500 400 l 1
 500 360 l 1
 460 360 l 1
 460 400 l 1
460 440 m 1
 500 440 l 1
 500 400 l 1
 460 400 l 1
 460 440 l 1
500 360 m 1
 540 360 l 1
 540 320 l 1
 500 320 l 1
 500 360 l 1
500 320 m 1
 540 320 l 1
 540 280 l 1
 500 280 l 1
 500 320 l 1
500 400 m 1
 540 400 l 1
 540 360 l 1
 500 360 l 1
 500 400 l 1
500 440 m 1
 540 440 l 1
 540 400 l 1
 500 400 l 1
 500 440 l 1
540 640 m 1
 580 640 l 1
 580 600 l 1
 540 600 l 1
 540 640 l 1
420 80 m 1
 420 120 l 1
 460 120 l 1
 460 80 l 1
 420 80 l 1
420 600 m 1
 420 640 l 1
 460 640 l 1
 460 600 l 1
 420 600 l 1
460 280 m 1
 460 320 l 1
 500 320 l 1
 500 280 l 1
 460 280 l 1
580 80 m 1
 580 120 l 1
 620 120 l 1
 620 80 l 1
 580 80 l 1
380 80 m 1
 380 120 l 1
 420 120 l 1
 420 80 l 1
 380 80 l 1
580 600 m 1
 580 640 l 1
 620 640 l 1
 620 600 l 1
 580 600 l 1
380 600 m 1
 380 640 l 1
 420 640 l 1
 420 600 l 1
 380 600 l 1
EndSplineSet
EndChar

StartChar: J
Encoding: 74 74 17
Width: 1000
Flags: H
LayerCount: 2
Fore
SplineSet
460 480 m 1
 500 480 l 1
 500 440 l 1
 460 440 l 1
 460 480 l 1
460 520 m 1
 500 520 l 1
 500 480 l 1
 460 480 l 1
 460 520 l 1
460 560 m 1
 500 560 l 1
 500 520 l 1
 460 520 l 1
 460 560 l 1
460 600 m 1
 500 600 l 1
 500 560 l 1
 460 560 l 1
 460 600 l 1
460 640 m 1
 500 640 l 1
 500 600 l 1
 460 600 l 1
 460 640 l 1
500 640 m 1
 540 640 l 1
 540 600 l 1
 500 600 l 1
 500 640 l 1
500 480 m 1
 540 480 l 1
 540 440 l 1
 500 440 l 1
 500 480 l 1
500 520 m 1
 540 520 l 1
 540 480 l 1
 500 480 l 1
 500 520 l 1
500 560 m 1
 540 560 l 1
 540 520 l 1
 500 520 l 1
 500 560 l 1
460 360 m 1
 500 360 l 1
 500 320 l 1
 460 320 l 1
 460 360 l 1
460 400 m 1
 500 400 l 1
 500 360 l 1
 460 360 l 1
 460 400 l 1
460 440 m 1
 500 440 l 1
 500 400 l 1
 460 400 l 1
 460 440 l 1
500 360 m 1
 540 360 l 1
 540 320 l 1
 500 320 l 1
 500 360 l 1
500 400 m 1
 540 400 l 1
 540 360 l 1
 500 360 l 1
 500 400 l 1
500 440 m 1
 540 440 l 1
 540 400 l 1
 500 400 l 1
 500 440 l 1
540 640 m 1
 580 640 l 1
 580 600 l 1
 540 600 l 1
 540 640 l 1
420 600 m 1
 420 640 l 1
 460 640 l 1
 460 600 l 1
 420 600 l 1
580 600 m 1
 580 640 l 1
 620 640 l 1
 620 600 l 1
 580 600 l 1
380 600 m 1
 380 640 l 1
 420 640 l 1
 420 600 l 1
 380 600 l 1
540 240 m 1
 540 200 l 1
 500 200 l 1
 500 240 l 1
 540 240 l 1
540 200 m 1
 540 160 l 1
 500 160 l 1
 500 200 l 1
 540 200 l 1
540 240 m 1
 540 200 l 1
 500 200 l 1
 500 240 l 1
 540 240 l 1
540 280 m 1
 540 240 l 1
 500 240 l 1
 500 280 l 1
 540 280 l 1
500 160 m 1
 500 120 l 1
 460 120 l 1
 460 160 l 1
 500 160 l 1
420 120 m 1
 420 80 l 1
 380 80 l 1
 380 120 l 1
 420 120 l 1
380 120 m 1
 380 80 l 1
 340 80 l 1
 340 120 l 1
 380 120 l 1
300 160 m 1
 300 120 l 1
 260 120 l 1
 260 160 l 1
 300 160 l 1
340 280 m 1
 340 240 l 1
 300 240 l 1
 300 280 l 1
 340 280 l 1
300 200 m 1
 300 160 l 1
 260 160 l 1
 260 200 l 1
 300 200 l 1
300 240 m 1
 300 200 l 1
 260 200 l 1
 260 240 l 1
 300 240 l 1
300 200 m 1
 300 160 l 1
 260 160 l 1
 260 200 l 1
 300 200 l 1
340 120 m 1
 340 80 l 1
 300 80 l 1
 300 120 l 1
 340 120 l 1
340 240 m 1
 340 200 l 1
 300 200 l 1
 300 240 l 1
 340 240 l 1
500 240 m 1
 500 200 l 1
 460 200 l 1
 460 240 l 1
 500 240 l 1
500 200 m 1
 500 160 l 1
 460 160 l 1
 460 200 l 1
 500 200 l 1
500 280 m 1
 500 240 l 1
 460 240 l 1
 460 280 l 1
 500 280 l 1
460 160 m 1
 460 120 l 1
 420 120 l 1
 420 160 l 1
 460 160 l 1
460 200 m 1
 460 160 l 1
 420 160 l 1
 420 200 l 1
 460 200 l 1
540 320 m 1
 540 280 l 1
 500 280 l 1
 500 320 l 1
 540 320 l 1
500 320 m 1
 500 280 l 1
 460 280 l 1
 460 320 l 1
 500 320 l 1
EndSplineSet
EndChar

StartChar: K
Encoding: 75 75 18
Width: 1000
Flags: H
LayerCount: 2
Fore
SplineSet
360 480 m 1
 400 480 l 1
 400 440 l 1
 360 440 l 1
 360 480 l 1
360 520 m 1
 400 520 l 1
 400 480 l 1
 360 480 l 1
 360 520 l 1
360 560 m 1
 400 560 l 1
 400 520 l 1
 360 520 l 1
 360 560 l 1
360 600 m 1
 400 600 l 1
 400 560 l 1
 360 560 l 1
 360 600 l 1
360 640 m 1
 400 640 l 1
 400 600 l 1
 360 600 l 1
 360 640 l 1
400 480 m 1
 440 480 l 1
 440 440 l 1
 400 440 l 1
 400 480 l 1
400 520 m 1
 440 520 l 1
 440 480 l 1
 400 480 l 1
 400 520 l 1
400 560 m 1
 440 560 l 1
 440 520 l 1
 400 520 l 1
 400 560 l 1
400 600 m 1
 440 600 l 1
 440 560 l 1
 400 560 l 1
 400 600 l 1
440 640 m 1
 480 640 l 1
 480 600 l 1
 440 600 l 1
 440 640 l 1
360 240 m 1
 360 280 l 1
 400 280 l 1
 400 240 l 1
 360 240 l 1
360 200 m 1
 360 240 l 1
 400 240 l 1
 400 200 l 1
 360 200 l 1
360 160 m 1
 360 200 l 1
 400 200 l 1
 400 160 l 1
 360 160 l 1
360 120 m 1
 360 160 l 1
 400 160 l 1
 400 120 l 1
 360 120 l 1
360 80 m 1
 360 120 l 1
 400 120 l 1
 400 80 l 1
 360 80 l 1
400 80 m 1
 400 120 l 1
 440 120 l 1
 440 80 l 1
 400 80 l 1
400 200 m 1
 400 240 l 1
 440 240 l 1
 440 200 l 1
 400 200 l 1
400 160 m 1
 400 200 l 1
 440 200 l 1
 440 160 l 1
 400 160 l 1
360 360 m 1
 360 400 l 1
 400 400 l 1
 400 360 l 1
 360 360 l 1
360 320 m 1
 360 360 l 1
 400 360 l 1
 400 320 l 1
 360 320 l 1
360 280 m 1
 360 320 l 1
 400 320 l 1
 400 280 l 1
 360 280 l 1
400 400 m 1
 400 440 l 1
 440 440 l 1
 440 400 l 1
 400 400 l 1
400 320 m 1
 400 360 l 1
 440 360 l 1
 440 320 l 1
 400 320 l 1
400 280 m 1
 400 320 l 1
 440 320 l 1
 440 280 l 1
 400 280 l 1
440 80 m 1
 440 120 l 1
 480 120 l 1
 480 80 l 1
 440 80 l 1
320 640 m 1
 360 640 l 1
 360 600 l 1
 320 600 l 1
 320 640 l 1
320 120 m 1
 360 120 l 1
 360 80 l 1
 320 80 l 1
 320 120 l 1
360 440 m 1
 400 440 l 1
 400 400 l 1
 360 400 l 1
 360 440 l 1
480 280 m 1
 480 320 l 1
 520 320 l 1
 520 280 l 1
 480 280 l 1
480 440 m 1
 520 440 l 1
 520 400 l 1
 480 400 l 1
 480 440 l 1
400 160 m 1
 440 160 l 1
 440 120 l 1
 400 120 l 1
 400 160 l 1
520 240 m 1
 520 280 l 1
 560 280 l 1
 560 240 l 1
 520 240 l 1
440 320 m 1
 440 360 l 1
 480 360 l 1
 480 320 l 1
 440 320 l 1
560 200 m 1
 560 240 l 1
 600 240 l 1
 600 200 l 1
 560 200 l 1
600 160 m 1
 600 200 l 1
 640 200 l 1
 640 160 l 1
 600 160 l 1
640 120 m 1
 640 160 l 1
 680 160 l 1
 680 120 l 1
 640 120 l 1
680 80 m 1
 680 120 l 1
 720 120 l 1
 720 80 l 1
 680 80 l 1
400 360 m 1
 400 400 l 1
 440 400 l 1
 440 360 l 1
 400 360 l 1
440 400 m 1
 480 400 l 1
 480 360 l 1
 440 360 l 1
 440 400 l 1
480 240 m 1
 480 280 l 1
 520 280 l 1
 520 240 l 1
 480 240 l 1
520 200 m 1
 520 240 l 1
 560 240 l 1
 560 200 l 1
 520 200 l 1
560 160 m 1
 560 200 l 1
 600 200 l 1
 600 160 l 1
 560 160 l 1
600 120 m 1
 600 160 l 1
 640 160 l 1
 640 120 l 1
 600 120 l 1
640 80 m 1
 640 120 l 1
 680 120 l 1
 680 80 l 1
 640 80 l 1
600 80 m 1
 600 120 l 1
 640 120 l 1
 640 80 l 1
 600 80 l 1
520 480 m 1
 560 480 l 1
 560 440 l 1
 520 440 l 1
 520 480 l 1
560 520 m 1
 600 520 l 1
 600 480 l 1
 560 480 l 1
 560 520 l 1
600 560 m 1
 640 560 l 1
 640 520 l 1
 600 520 l 1
 600 560 l 1
640 600 m 1
 680 600 l 1
 680 560 l 1
 640 560 l 1
 640 600 l 1
680 640 m 1
 720 640 l 1
 720 600 l 1
 680 600 l 1
 680 640 l 1
400 240 m 1
 400 280 l 1
 440 280 l 1
 440 240 l 1
 400 240 l 1
640 640 m 1
 680 640 l 1
 680 600 l 1
 640 600 l 1
 640 640 l 1
640 640 m 1
 680 640 l 1
 680 600 l 1
 640 600 l 1
 640 640 l 1
400 640 m 1
 440 640 l 1
 440 600 l 1
 400 600 l 1
 400 640 l 1
EndSplineSet
EndChar

StartChar: L
Encoding: 76 76 19
Width: 1000
Flags: H
LayerCount: 2
Fore
SplineSet
360 240 m 1
 360 280 l 1
 400 280 l 1
 400 240 l 1
 360 240 l 1
360 200 m 1
 360 240 l 1
 400 240 l 1
 400 200 l 1
 360 200 l 1
360 160 m 1
 360 200 l 1
 400 200 l 1
 400 160 l 1
 360 160 l 1
360 120 m 1
 360 160 l 1
 400 160 l 1
 400 120 l 1
 360 120 l 1
360 80 m 1
 360 120 l 1
 400 120 l 1
 400 80 l 1
 360 80 l 1
400 240 m 1
 400 280 l 1
 440 280 l 1
 440 240 l 1
 400 240 l 1
400 200 m 1
 400 240 l 1
 440 240 l 1
 440 200 l 1
 400 200 l 1
400 160 m 1
 400 200 l 1
 440 200 l 1
 440 160 l 1
 400 160 l 1
400 120 m 1
 400 160 l 1
 440 160 l 1
 440 120 l 1
 400 120 l 1
440 80 m 1
 440 120 l 1
 480 120 l 1
 480 80 l 1
 440 80 l 1
360 480 m 1
 400 480 l 1
 400 440 l 1
 360 440 l 1
 360 480 l 1
360 520 m 1
 400 520 l 1
 400 480 l 1
 360 480 l 1
 360 520 l 1
360 560 m 1
 400 560 l 1
 400 520 l 1
 360 520 l 1
 360 560 l 1
360 600 m 1
 400 600 l 1
 400 560 l 1
 360 560 l 1
 360 600 l 1
360 640 m 1
 400 640 l 1
 400 600 l 1
 360 600 l 1
 360 640 l 1
400 640 m 1
 440 640 l 1
 440 600 l 1
 400 600 l 1
 400 640 l 1
400 480 m 1
 440 480 l 1
 440 440 l 1
 400 440 l 1
 400 480 l 1
400 520 m 1
 440 520 l 1
 440 480 l 1
 400 480 l 1
 400 520 l 1
400 560 m 1
 440 560 l 1
 440 520 l 1
 400 520 l 1
 400 560 l 1
360 360 m 1
 400 360 l 1
 400 320 l 1
 360 320 l 1
 360 360 l 1
360 400 m 1
 400 400 l 1
 400 360 l 1
 360 360 l 1
 360 400 l 1
360 440 m 1
 400 440 l 1
 400 400 l 1
 360 400 l 1
 360 440 l 1
400 320 m 1
 440 320 l 1
 440 280 l 1
 400 280 l 1
 400 320 l 1
400 400 m 1
 440 400 l 1
 440 360 l 1
 400 360 l 1
 400 400 l 1
400 440 m 1
 440 440 l 1
 440 400 l 1
 400 400 l 1
 400 440 l 1
440 640 m 1
 480 640 l 1
 480 600 l 1
 440 600 l 1
 440 640 l 1
320 80 m 1
 320 120 l 1
 360 120 l 1
 360 80 l 1
 320 80 l 1
320 600 m 1
 320 640 l 1
 360 640 l 1
 360 600 l 1
 320 600 l 1
360 280 m 1
 360 320 l 1
 400 320 l 1
 400 280 l 1
 360 280 l 1
400 560 m 1
 400 600 l 1
 440 600 l 1
 440 560 l 1
 400 560 l 1
400 360 m 1
 440 360 l 1
 440 320 l 1
 400 320 l 1
 400 360 l 1
480 80 m 1
 480 120 l 1
 520 120 l 1
 520 80 l 1
 480 80 l 1
520 80 m 1
 520 120 l 1
 560 120 l 1
 560 80 l 1
 520 80 l 1
560 80 m 1
 560 120 l 1
 600 120 l 1
 600 80 l 1
 560 80 l 1
600 80 m 1
 600 120 l 1
 640 120 l 1
 640 80 l 1
 600 80 l 1
640 80 m 1
 640 120 l 1
 680 120 l 1
 680 80 l 1
 640 80 l 1
680 80 m 1
 680 120 l 1
 720 120 l 1
 720 80 l 1
 680 80 l 1
680 120 m 1
 680 160 l 1
 720 160 l 1
 720 120 l 1
 680 120 l 1
680 160 m 1
 680 200 l 1
 720 200 l 1
 720 160 l 1
 680 160 l 1
640 120 m 1
 640 160 l 1
 680 160 l 1
 680 120 l 1
 640 120 l 1
EndSplineSet
EndChar

StartChar: i
Encoding: 105 105 20
Width: 1000
Flags: H
LayerCount: 2
Fore
SplineSet
430 360 m 1
 430 400 l 1
 470 400 l 1
 470 360 l 1
 430 360 l 1
430 320 m 1
 430 360 l 1
 470 360 l 1
 470 320 l 1
 430 320 l 1
430 280 m 1
 430 320 l 1
 470 320 l 1
 470 280 l 1
 430 280 l 1
430 240 m 1
 430 280 l 1
 470 280 l 1
 470 240 l 1
 430 240 l 1
430 200 m 1
 430 240 l 1
 470 240 l 1
 470 200 l 1
 430 200 l 1
430 160 m 1
 430 200 l 1
 470 200 l 1
 470 160 l 1
 430 160 l 1
510 80.2626953125 m 1
 510 120.262695312 l 1
 550 120.262695312 l 1
 550 80.2626953125 l 1
 510 80.2626953125 l 1
470 80 m 1
 470 120 l 1
 510 120 l 1
 510 80 l 1
 470 80 l 1
470 120 m 1
 470 160 l 1
 510 160 l 1
 510 120 l 1
 470 120 l 1
470 360 m 1
 470 400 l 1
 510 400 l 1
 510 360 l 1
 470 360 l 1
470 320 m 1
 470 360 l 1
 510 360 l 1
 510 320 l 1
 470 320 l 1
470 280 m 1
 470 320 l 1
 510 320 l 1
 510 280 l 1
 470 280 l 1
470 240 m 1
 470 280 l 1
 510 280 l 1
 510 240 l 1
 470 240 l 1
470 200 m 1
 470 240 l 1
 510 240 l 1
 510 200 l 1
 470 200 l 1
470 160 m 1
 470 200 l 1
 510 200 l 1
 510 160 l 1
 470 160 l 1
430 120 m 1
 430 160 l 1
 470 160 l 1
 470 120 l 1
 430 120 l 1
430 520 m 1
 430 560 l 1
 470 560 l 1
 470 520 l 1
 430 520 l 1
430 480 m 1
 430 520 l 1
 470 520 l 1
 470 480 l 1
 430 480 l 1
470 520 m 1
 470 560 l 1
 510 560 l 1
 510 520 l 1
 470 520 l 1
390 360 m 1
 390 400 l 1
 430 400 l 1
 430 360 l 1
 390 360 l 1
EndSplineSet
EndChar

StartChar: j
Encoding: 106 106 21
Width: 1000
Flags: H
LayerCount: 2
Fore
SplineSet
480 80 m 1
 480 120 l 1
 520 120 l 1
 520 80 l 1
 480 80 l 1
480 160 m 1
 480 200 l 1
 520 200 l 1
 520 160 l 1
 480 160 l 1
480 120 m 1
 480 160 l 1
 520 160 l 1
 520 120 l 1
 480 120 l 1
480 40 m 1
 480 80 l 1
 520 80 l 1
 520 40 l 1
 480 40 l 1
520 80 m 1
 520 120 l 1
 560 120 l 1
 560 80 l 1
 520 80 l 1
520 160 m 1
 520 200 l 1
 560 200 l 1
 560 160 l 1
 520 160 l 1
520 120 m 1
 520 160 l 1
 560 160 l 1
 560 120 l 1
 520 120 l 1
520 40 m 1
 520 80 l 1
 560 80 l 1
 560 40 l 1
 520 40 l 1
560 0 m 1
 560 -40 l 1
 520 -40 l 1
 520 0 l 1
 560 0 l 1
560 -40 m 1
 560 -80 l 1
 520 -80 l 1
 520 -40 l 1
 560 -40 l 1
560 0 m 1
 560 -40 l 1
 520 -40 l 1
 520 0 l 1
 560 0 l 1
560 40 m 1
 560 0 l 1
 520 0 l 1
 520 40 l 1
 560 40 l 1
520 -80 m 1
 520 -120 l 1
 480 -120 l 1
 480 -80 l 1
 520 -80 l 1
440 -120 m 1
 440 -160 l 1
 400 -160 l 1
 400 -120 l 1
 440 -120 l 1
400 -120 m 1
 400 -160 l 1
 360 -160 l 1
 360 -120 l 1
 400 -120 l 1
320 -80 m 1
 320 -120 l 1
 280 -120 l 1
 280 -80 l 1
 320 -80 l 1
360 40 m 1
 360 0 l 1
 320 0 l 1
 320 40 l 1
 360 40 l 1
320 -40 m 1
 320 -80 l 1
 280 -80 l 1
 280 -40 l 1
 320 -40 l 1
320 0 m 1
 320 -40 l 1
 280 -40 l 1
 280 0 l 1
 320 0 l 1
320 -40 m 1
 320 -80 l 1
 280 -80 l 1
 280 -40 l 1
 320 -40 l 1
360 -120 m 1
 360 -160 l 1
 320 -160 l 1
 320 -120 l 1
 360 -120 l 1
360 0 m 1
 360 -40 l 1
 320 -40 l 1
 320 0 l 1
 360 0 l 1
520 0 m 1
 520 -40 l 1
 480 -40 l 1
 480 0 l 1
 520 0 l 1
520 -40 m 1
 520 -80 l 1
 480 -80 l 1
 480 -40 l 1
 520 -40 l 1
520 40 m 1
 520 0 l 1
 480 0 l 1
 480 40 l 1
 520 40 l 1
480 -80 m 1
 480 -120 l 1
 440 -120 l 1
 440 -80 l 1
 480 -80 l 1
480 -40 m 1
 480 -80 l 1
 440 -80 l 1
 440 -40 l 1
 480 -40 l 1
480 280 m 1
 480 320 l 1
 520 320 l 1
 520 280 l 1
 480 280 l 1
520 280 m 1
 520 320 l 1
 560 320 l 1
 560 280 l 1
 520 280 l 1
520 320 m 1
 520 360 l 1
 560 360 l 1
 560 320 l 1
 520 320 l 1
440 160 m 1
 440 200 l 1
 480 200 l 1
 480 160 l 1
 440 160 l 1
EndSplineSet
EndChar

StartChar: k
Encoding: 107 107 22
Width: 1000
Flags: H
LayerCount: 2
Fore
SplineSet
360 240 m 1
 360 280 l 1
 400 280 l 1
 400 240 l 1
 360 240 l 1
360 200 m 1
 360 240 l 1
 400 240 l 1
 400 200 l 1
 360 200 l 1
360 160 m 1
 360 200 l 1
 400 200 l 1
 400 160 l 1
 360 160 l 1
360 120 m 1
 360 160 l 1
 400 160 l 1
 400 120 l 1
 360 120 l 1
360 80 m 1
 360 120 l 1
 400 120 l 1
 400 80 l 1
 360 80 l 1
400 240 m 1
 400 280 l 1
 440 280 l 1
 440 240 l 1
 400 240 l 1
400 200 m 1
 400 240 l 1
 440 240 l 1
 440 200 l 1
 400 200 l 1
400 160 m 1
 400 200 l 1
 440 200 l 1
 440 160 l 1
 400 160 l 1
400 120 m 1
 400 160 l 1
 440 160 l 1
 440 120 l 1
 400 120 l 1
440 80 m 1
 440 120 l 1
 480 120 l 1
 480 80 l 1
 440 80 l 1
360 480 m 1
 400 480 l 1
 400 440 l 1
 360 440 l 1
 360 480 l 1
360 520 m 1
 400 520 l 1
 400 480 l 1
 360 480 l 1
 360 520 l 1
360 560 m 1
 400 560 l 1
 400 520 l 1
 360 520 l 1
 360 560 l 1
360 600 m 1
 400 600 l 1
 400 560 l 1
 360 560 l 1
 360 600 l 1
360 640 m 1
 400 640 l 1
 400 600 l 1
 360 600 l 1
 360 640 l 1
400 640 m 1
 440 640 l 1
 440 600 l 1
 400 600 l 1
 400 640 l 1
400 480 m 1
 440 480 l 1
 440 440 l 1
 400 440 l 1
 400 480 l 1
400 520 m 1
 440 520 l 1
 440 480 l 1
 400 480 l 1
 400 520 l 1
400 560 m 1
 440 560 l 1
 440 520 l 1
 400 520 l 1
 400 560 l 1
360 360 m 1
 400 360 l 1
 400 320 l 1
 360 320 l 1
 360 360 l 1
360 400 m 1
 400 400 l 1
 400 360 l 1
 360 360 l 1
 360 400 l 1
360 440 m 1
 400 440 l 1
 400 400 l 1
 360 400 l 1
 360 440 l 1
400 320 m 1
 440 320 l 1
 440 280 l 1
 400 280 l 1
 400 320 l 1
400 400 m 1
 440 400 l 1
 440 360 l 1
 400 360 l 1
 400 400 l 1
400 440 m 1
 440 440 l 1
 440 400 l 1
 400 400 l 1
 400 440 l 1
320 80 m 1
 320 120 l 1
 360 120 l 1
 360 80 l 1
 320 80 l 1
320 600 m 1
 320 640 l 1
 360 640 l 1
 360 600 l 1
 320 600 l 1
360 280 m 1
 360 320 l 1
 400 320 l 1
 400 280 l 1
 360 280 l 1
480 400 m 1
 520 400 l 1
 520 360 l 1
 480 360 l 1
 480 400 l 1
440 280 m 1
 440 320 l 1
 480 320 l 1
 480 280 l 1
 440 280 l 1
480 240 m 1
 480 280 l 1
 520 280 l 1
 520 240 l 1
 480 240 l 1
520 200 m 1
 520 240 l 1
 560 240 l 1
 560 200 l 1
 520 200 l 1
560 160 m 1
 560 200 l 1
 600 200 l 1
 600 160 l 1
 560 160 l 1
600 120 m 1
 600 160 l 1
 640 160 l 1
 640 120 l 1
 600 120 l 1
400 560 m 1
 400 600 l 1
 440 600 l 1
 440 560 l 1
 400 560 l 1
640 80 m 1
 640 120 l 1
 680 120 l 1
 680 80 l 1
 640 80 l 1
640 80 m 1
 640 120 l 1
 680 120 l 1
 680 80 l 1
 640 80 l 1
520 440 m 1
 560 440 l 1
 560 400 l 1
 520 400 l 1
 520 440 l 1
440 360 m 1
 480 360 l 1
 480 320 l 1
 440 320 l 1
 440 360 l 1
560 480 m 1
 600 480 l 1
 600 440 l 1
 560 440 l 1
 560 480 l 1
400 360 m 1
 440 360 l 1
 440 320 l 1
 400 320 l 1
 400 360 l 1
600 480 m 1
 600 520 l 1
 640 520 l 1
 640 480 l 1
 600 480 l 1
600 80 m 1
 600 120 l 1
 640 120 l 1
 640 80 l 1
 600 80 l 1
600 520 m 1
 600 560 l 1
 640 560 l 1
 640 520 l 1
 600 520 l 1
EndSplineSet
EndChar

StartChar: l
Encoding: 108 108 23
Width: 1000
Flags: H
LayerCount: 2
Fore
SplineSet
460 240 m 1
 460 280 l 1
 500 280 l 1
 500 240 l 1
 460 240 l 1
460 200 m 1
 460 240 l 1
 500 240 l 1
 500 200 l 1
 460 200 l 1
460 160 m 1
 460 200 l 1
 500 200 l 1
 500 160 l 1
 460 160 l 1
460 120 m 1
 460 160 l 1
 500 160 l 1
 500 120 l 1
 460 120 l 1
460 80 m 1
 460 120 l 1
 500 120 l 1
 500 80 l 1
 460 80 l 1
500 80 m 1
 500 120 l 1
 540 120 l 1
 540 80 l 1
 500 80 l 1
500 240 m 1
 500 280 l 1
 540 280 l 1
 540 240 l 1
 500 240 l 1
500 200 m 1
 500 240 l 1
 540 240 l 1
 540 200 l 1
 500 200 l 1
500 160 m 1
 500 200 l 1
 540 200 l 1
 540 160 l 1
 500 160 l 1
500 120 m 1
 500 160 l 1
 540 160 l 1
 540 120 l 1
 500 120 l 1
540 80 m 1
 540 120 l 1
 580 120 l 1
 580 80 l 1
 540 80 l 1
460 480 m 1
 500 480 l 1
 500 440 l 1
 460 440 l 1
 460 480 l 1
460 520 m 1
 500 520 l 1
 500 480 l 1
 460 480 l 1
 460 520 l 1
460 560 m 1
 500 560 l 1
 500 520 l 1
 460 520 l 1
 460 560 l 1
460 600 m 1
 500 600 l 1
 500 560 l 1
 460 560 l 1
 460 600 l 1
460 640 m 1
 500 640 l 1
 500 600 l 1
 460 600 l 1
 460 640 l 1
500 480 m 1
 540 480 l 1
 540 440 l 1
 500 440 l 1
 500 480 l 1
500 520 m 1
 540 520 l 1
 540 480 l 1
 500 480 l 1
 500 520 l 1
500 560 m 1
 540 560 l 1
 540 520 l 1
 500 520 l 1
 500 560 l 1
460 360 m 1
 500 360 l 1
 500 320 l 1
 460 320 l 1
 460 360 l 1
460 400 m 1
 500 400 l 1
 500 360 l 1
 460 360 l 1
 460 400 l 1
460 440 m 1
 500 440 l 1
 500 400 l 1
 460 400 l 1
 460 440 l 1
500 360 m 1
 540 360 l 1
 540 320 l 1
 500 320 l 1
 500 360 l 1
500 320 m 1
 540 320 l 1
 540 280 l 1
 500 280 l 1
 500 320 l 1
500 400 m 1
 540 400 l 1
 540 360 l 1
 500 360 l 1
 500 400 l 1
500 440 m 1
 540 440 l 1
 540 400 l 1
 500 400 l 1
 500 440 l 1
420 80 m 1
 420 120 l 1
 460 120 l 1
 460 80 l 1
 420 80 l 1
420 600 m 1
 420 640 l 1
 460 640 l 1
 460 600 l 1
 420 600 l 1
460 280 m 1
 460 320 l 1
 500 320 l 1
 500 280 l 1
 460 280 l 1
580 80 m 1
 580 120 l 1
 620 120 l 1
 620 80 l 1
 580 80 l 1
380 80 m 1
 380 120 l 1
 420 120 l 1
 420 80 l 1
 380 80 l 1
380 600 m 1
 380 640 l 1
 420 640 l 1
 420 600 l 1
 380 600 l 1
EndSplineSet
EndChar
